<?xml version="1.0" encoding="UTF-8"?><svg id="uuid-613bf097-b2dd-450e-bf85-788d8fba5ecc" xmlns="http://www.w3.org/2000/svg" viewBox="0 0 1665.39 1687.5"><defs><style>.uuid-1f973298-8e51-442e-ab23-8fe110702e6b{fill:#00cebf;}.uuid-1ad8166f-662d-4da3-ac9b-d52832f0a5e4,.uuid-ca9c6e01-e658-456f-ae6e-8243789cbd69{fill:#fff;}.uuid-f55bf955-f27e-4da3-b1f4-5a6ea07f9e31{letter-spacing:0em;}.uuid-f9d218ab-3001-489e-b654-1daff4270e69{fill:#defaff;}.uuid-7afde6b8-ac82-44e8-9a43-c39d141b577f{fill:#72777c;}.uuid-871766eb-bf7d-4b42-9922-54399ce571bb{fill:#083b54;}.uuid-5e6de6b4-20a9-47a6-9bca-603f47893ea0{fill:#c5c8e7;}.uuid-eeea2be1-e3a8-486f-87df-9eabe8401ee0{fill:#4daafa;}.uuid-0b889ca1-f573-4678-8cc3-390854f54c77{fill:#00dbc6;}.uuid-4ebedf94-620a-4ad6-9d5f-065a33d61d1b{fill:#c7c2cc;}.uuid-a9ee7f68-cf3f-46df-a290-f660d78469c8{fill:#56d6f4;}.uuid-59949e18-0cb2-428b-a50c-946c55a6a3e8{letter-spacing:-.02em;}.uuid-ea9f243f-14a4-4a3b-a93e-73d7fbd80844{fill:#7ddcf6;}.uuid-7336a1a6-9750-4c2b-8325-8ee0302b9af5{fill:#39b54a;font-family:Coquette-Black, Coquette;font-size:161px;font-weight:800;}.uuid-23304fbb-4a42-4ac1-a458-5688d188983e{opacity:.3;}.uuid-76bcb543-363a-4f7f-8e07-863991d255e4{fill:#e5e5e5;}.uuid-d104b65b-1ccc-4b9c-9d6b-2a007ae7c881{fill:#ff1643;}.uuid-e2f6e7eb-5e11-487a-b4cf-2c8c8b240529{fill:#e8183b;}.uuid-a18111cd-6746-432d-94ae-12409d119808{fill:#456375;}.uuid-25c691a5-312a-4d30-8ee0-16a08e465c23{opacity:.12;}.uuid-f7167448-ebc0-4aac-af46-48cf7e778b18{letter-spacing:0em;}.uuid-ee725844-d5dc-4302-98f0-7beeb8c2b09e{fill:#cbcacc;}.uuid-ca9c6e01-e658-456f-ae6e-8243789cbd69{opacity:.6;}.uuid-d64acd06-d876-4925-af8f-79a20c42fc90{fill:#be0d2d;}</style></defs><g><g><path class="uuid-1f973298-8e51-442e-ab23-8fe110702e6b" d="m497.59,929.64c11.9-23.18,29.58-49.61,11.66-56.2-7.79-2.86-11.6-11.65-7.71-18.98,2.73-5.13,5.19-10.4,7.39-15.78,5.82-14.28,0-31.33-14.22-37.26-21.16-8.82,31.63-62.86-8.07-64.27-6.83-.24-11.35-5.7-12.96-12.34-7.98-32.91-39.23-58.53-40.55-3.04-.03,1.26.01,2.54.3,3.77.02.1.05.21.07.31,2.35,10.44-7.81,18.9-17.94,15.43-9.28-3.19-20.82,10.37-18.8,22.71.12.74.35,1.49.61,2.2,12.28,33.74,22.48,38.8-5.78,41.95-10.91,1.22-15.85,14.28-8.46,22.4,9.19,10.1,26.87,18.39,26.99,31.36.46,4.83-1.6,8.04-4.87,10.49-12.95,9.67-15.18,27.98-4.13,39.77,5.63,6.01,10.48,13.08,14.5,20.23,2.69,4.79,2.32,10.83-1.24,15.01-4.18,4.91-6.01,11.23,1.19,15.45,27.41,9.24,18.13,31.17,19.02,49.13.18,3.58,1.88,6.91,4.58,9.26,5.19,4.52,10.46,8.92,14.34,13.85,5.62,7.14,16.66,6.52,21.81-.96,21.64-31.45,50.92-75.95,29.14-85.98-7.12-3.28-10.45-11.53-6.87-18.5Z"/><path class="uuid-0b889ca1-f573-4678-8cc3-390854f54c77" d="m438.33,980.97c11.9-23.18,29.58-49.61,11.66-56.2-7.79-2.86-11.6-11.65-7.71-18.98,2.73-5.13,5.19-10.4,7.39-15.78,5.82-14.28,0-31.33-14.22-37.26-21.16-8.82,31.63-62.86-8.07-64.27-6.83-.24-12.46-5.52-12.96-12.34-3.13-43.11-36.42-64.43-40.55-3.04-.08,1.26.01,2.54.3,3.77.02.1.05.21.07.31,2.35,10.44-7.81,18.9-17.94,15.43-9.28-3.19-20.82,10.37-18.8,22.71.12.74.35,1.49.61,2.2,12.28,33.74,22.48,38.8-5.78,41.95-10.91,1.22-15.85,14.28-8.46,22.4,9.19,10.1,26.87,18.39,26.99,31.36.46,4.83-1.6,8.04-4.87,10.49-12.95,9.67-15.18,27.98-4.13,39.77,5.63,6.01,10.48,13.08,14.5,20.23,2.69,4.79,2.32,10.83-1.24,15.01-4.18,4.91-6.01,11.23,1.19,15.45,27.41,9.24,18.13,31.17,19.02,49.13.18,3.58,1.88,6.91,4.58,9.26,5.19,4.52,10.46,8.92,14.34,13.85,5.62,7.14,16.66,6.52,21.81-.96,21.64-31.45,50.92-75.95,29.14-85.98-7.12-3.28-10.45-11.53-6.87-18.5Z"/><polygon class="uuid-871766eb-bf7d-4b42-9922-54399ce571bb" points="406.47 1059.13 412.47 1157 400.47 1157 406.47 1059.13"/><polygon class="uuid-871766eb-bf7d-4b42-9922-54399ce571bb" points="467.18 1022.67 471.18 1110.91 463.18 1110.91 467.18 1022.67"/><path class="uuid-ee725844-d5dc-4302-98f0-7beeb8c2b09e" d="m558.2,657.07h803.44c36.23,0,65.64,29.41,65.64,65.64v424.36H492.56v-424.36c0-36.23,29.41-65.64,65.64-65.64Z"/><g><rect class="uuid-ea9f243f-14a4-4a3b-a93e-73d7fbd80844" x="562.22" y="807.78" width="295.06" height="229.41"/><g><g><rect class="uuid-ea9f243f-14a4-4a3b-a93e-73d7fbd80844" x="1046.83" y="787.79" width="347.91" height="269.39"/><path class="uuid-871766eb-bf7d-4b42-9922-54399ce571bb" d="m1392.24,790.29v264.39h-342.91v-264.39h342.91Zm5-5h-352.91v274.39h352.91v-274.39h0Z"/></g><g><rect class="uuid-ea9f243f-14a4-4a3b-a93e-73d7fbd80844" x="525.1" y="787.79" width="347.91" height="269.39"/><path class="uuid-871766eb-bf7d-4b42-9922-54399ce571bb" d="m870.5,790.29v264.39h-342.91v-264.39h342.91Zm5-5h-352.91v274.39h352.91v-274.39h0Z"/></g><g class="uuid-23304fbb-4a42-4ac1-a458-5688d188983e"><polygon class="uuid-ca9c6e01-e658-456f-ae6e-8243789cbd69" points="767.96 789.73 592.7 1054.86 532.71 1054.86 708.03 789.73 767.96 789.73"/><polygon class="uuid-ca9c6e01-e658-456f-ae6e-8243789cbd69" points="824.4 789.73 644.28 1054.86 626.82 1054.86 806.94 789.73 824.4 789.73"/><polygon class="uuid-ca9c6e01-e658-456f-ae6e-8243789cbd69" points="855.08 789.73 674.96 1054.86 664.49 1054.86 844.61 789.73 855.08 789.73"/></g><g class="uuid-23304fbb-4a42-4ac1-a458-5688d188983e"><polygon class="uuid-ca9c6e01-e658-456f-ae6e-8243789cbd69" points="1300.66 789.73 1125.4 1054.86 1065.41 1054.86 1240.73 789.73 1300.66 789.73"/><polygon class="uuid-ca9c6e01-e658-456f-ae6e-8243789cbd69" points="1357.1 789.73 1176.98 1054.86 1159.52 1054.86 1339.64 789.73 1357.1 789.73"/><polygon class="uuid-ca9c6e01-e658-456f-ae6e-8243789cbd69" points="1387.78 789.73 1207.66 1054.86 1197.19 1054.86 1377.31 789.73 1387.78 789.73"/></g></g><g><rect class="uuid-ea9f243f-14a4-4a3b-a93e-73d7fbd80844" x="899.25" y="762.35" width="121.33" height="331.29"/><path class="uuid-871766eb-bf7d-4b42-9922-54399ce571bb" d="m1018.08,764.85v326.29h-116.33v-326.29h116.33Zm5-5h-126.33v336.29h126.33v-336.29h0Z"/></g><g class="uuid-25c691a5-312a-4d30-8ee0-16a08e465c23"><polygon class="uuid-ca9c6e01-e658-456f-ae6e-8243789cbd69" points="1017.89 789.73 1017.89 829.54 901.97 1019.95 901.97 920.59 981.66 789.73 1017.89 789.73"/><polygon class="uuid-ca9c6e01-e658-456f-ae6e-8243789cbd69" points="1017.89 891.33 1017.89 919.5 917.34 1080.2 901.97 1080.2 901.97 1076.6 1017.89 891.33"/><polygon class="uuid-ca9c6e01-e658-456f-ae6e-8243789cbd69" points="1017.89 952.08 1017.89 968.96 948.29 1080.2 937.73 1080.2 1017.89 952.08"/></g><g><rect class="uuid-871766eb-bf7d-4b42-9922-54399ce571bb" x="1146.35" y="791.27" width="5" height="263.59"/><rect class="uuid-871766eb-bf7d-4b42-9922-54399ce571bb" x="1299.15" y="791.27" width="5" height="263.59"/><rect class="uuid-871766eb-bf7d-4b42-9922-54399ce571bb" x="620.15" y="791.27" width="5" height="263.59"/><rect class="uuid-871766eb-bf7d-4b42-9922-54399ce571bb" x="772.95" y="791.27" width="5" height="263.59"/></g></g><g><g><g><polygon class="uuid-e2f6e7eb-5e11-487a-b4cf-2c8c8b240529" points="1384.26 778.85 1319.47 778.85 1240.03 641.02 1290.37 641.02 1384.26 778.85"/><polygon class="uuid-e2f6e7eb-5e11-487a-b4cf-2c8c8b240529" points="1513.83 778.85 1449.04 778.85 1340.72 641.02 1391.06 641.02 1513.83 778.85"/><polygon class="uuid-e2f6e7eb-5e11-487a-b4cf-2c8c8b240529" points="477.24 778.85 412.46 778.85 535.23 641.02 585.57 641.02 477.24 778.85"/><polygon class="uuid-e2f6e7eb-5e11-487a-b4cf-2c8c8b240529" points="606.82 778.85 542.03 778.85 635.91 641.02 686.26 641.02 606.82 778.85"/><polygon class="uuid-e2f6e7eb-5e11-487a-b4cf-2c8c8b240529" points="736.39 778.85 671.6 778.85 736.6 641.02 786.94 641.02 736.39 778.85"/><polygon class="uuid-e2f6e7eb-5e11-487a-b4cf-2c8c8b240529" points="865.96 778.85 801.18 778.85 837.29 641.02 887.63 641.02 865.96 778.85"/><polygon class="uuid-e2f6e7eb-5e11-487a-b4cf-2c8c8b240529" points="995.54 778.85 930.75 778.85 937.97 641.02 988.31 641.02 995.54 778.85"/><polygon class="uuid-e2f6e7eb-5e11-487a-b4cf-2c8c8b240529" points="1125.11 778.85 1060.32 778.85 1038.66 641.02 1089 641.02 1125.11 778.85"/><polygon class="uuid-e2f6e7eb-5e11-487a-b4cf-2c8c8b240529" points="1254.68 778.85 1189.9 778.85 1139.34 641.02 1189.69 641.02 1254.68 778.85"/></g><g><polygon class="uuid-d104b65b-1ccc-4b9c-9d6b-2a007ae7c881" points="1384.26 778.85 1319.47 778.85 1240.03 641.02 1290.37 641.02 1384.26 778.85"/><polygon class="uuid-d104b65b-1ccc-4b9c-9d6b-2a007ae7c881" points="1513.83 778.85 1449.04 778.85 1340.72 641.02 1391.06 641.02 1513.83 778.85"/><polygon class="uuid-d104b65b-1ccc-4b9c-9d6b-2a007ae7c881" points="477.24 778.85 412.46 778.85 535.23 641.02 585.57 641.02 477.24 778.85"/><polygon class="uuid-d104b65b-1ccc-4b9c-9d6b-2a007ae7c881" points="606.82 778.85 542.03 778.85 635.91 641.02 686.26 641.02 606.82 778.85"/><polygon class="uuid-d104b65b-1ccc-4b9c-9d6b-2a007ae7c881" points="736.39 778.85 671.6 778.85 736.6 641.02 786.94 641.02 736.39 778.85"/><polygon class="uuid-d104b65b-1ccc-4b9c-9d6b-2a007ae7c881" points="865.96 778.85 801.18 778.85 837.29 641.02 887.63 641.02 865.96 778.85"/><polygon class="uuid-d104b65b-1ccc-4b9c-9d6b-2a007ae7c881" points="995.54 778.85 930.75 778.85 937.97 641.02 988.31 641.02 995.54 778.85"/><polygon class="uuid-d104b65b-1ccc-4b9c-9d6b-2a007ae7c881" points="1125.11 778.85 1060.32 778.85 1038.66 641.02 1089 641.02 1125.11 778.85"/><polygon class="uuid-d104b65b-1ccc-4b9c-9d6b-2a007ae7c881" points="1254.68 778.85 1189.9 778.85 1139.34 641.02 1189.69 641.02 1254.68 778.85"/></g><g><polygon class="uuid-1ad8166f-662d-4da3-ac9b-d52832f0a5e4" points="542.03 778.85 477.24 778.85 585.57 641.02 635.91 641.02 542.03 778.85"/><polygon class="uuid-1ad8166f-662d-4da3-ac9b-d52832f0a5e4" points="671.6 778.85 606.82 778.85 686.26 641.02 736.6 641.02 671.6 778.85"/><polygon class="uuid-1ad8166f-662d-4da3-ac9b-d52832f0a5e4" points="801.18 778.85 736.39 778.85 786.94 641.02 837.29 641.02 801.18 778.85"/><polygon class="uuid-1ad8166f-662d-4da3-ac9b-d52832f0a5e4" points="930.75 778.85 865.96 778.85 887.63 641.02 937.97 641.02 930.75 778.85"/><polygon class="uuid-1ad8166f-662d-4da3-ac9b-d52832f0a5e4" points="1060.32 778.85 995.54 778.85 988.31 641.02 1038.66 641.02 1060.32 778.85"/><polygon class="uuid-1ad8166f-662d-4da3-ac9b-d52832f0a5e4" points="1189.9 778.85 1125.11 778.85 1089 641.02 1139.34 641.02 1189.9 778.85"/><polygon class="uuid-1ad8166f-662d-4da3-ac9b-d52832f0a5e4" points="1319.47 778.85 1254.68 778.85 1189.69 641.02 1240.03 641.02 1319.47 778.85"/><polygon class="uuid-1ad8166f-662d-4da3-ac9b-d52832f0a5e4" points="1449.04 778.85 1384.26 778.85 1290.37 641.02 1340.72 641.02 1449.04 778.85"/></g></g><g><g><path class="uuid-e2f6e7eb-5e11-487a-b4cf-2c8c8b240529" d="m1368.4,793.8h-33.95c-8.5,0-15.38-6.89-15.38-15.38v-.56h64.71v.56c0,8.5-6.89,15.38-15.38,15.38Z"/><path class="uuid-e2f6e7eb-5e11-487a-b4cf-2c8c8b240529" d="m1497.83,793.8h-33.95c-8.5,0-15.38-6.89-15.38-15.38v-.56h64.71v.56c0,8.5-6.89,15.38-15.38,15.38Z"/><path class="uuid-e2f6e7eb-5e11-487a-b4cf-2c8c8b240529" d="m462.41,793.8h-33.95c-8.5,0-15.38-6.89-15.38-15.38v-.56h64.71v.56c0,8.5-6.89,15.38-15.38,15.38Z"/><path class="uuid-e2f6e7eb-5e11-487a-b4cf-2c8c8b240529" d="m462.41,793.8h-33.95c-8.5,0-15.38-6.89-15.38-15.38v-.56h64.71v.56c0,8.5-6.89,15.38-15.38,15.38Z"/><path class="uuid-e2f6e7eb-5e11-487a-b4cf-2c8c8b240529" d="m591.84,793.8h-33.95c-8.5,0-15.38-6.89-15.38-15.38v-.56h64.71v.56c0,8.5-6.89,15.38-15.38,15.38Z"/><path class="uuid-e2f6e7eb-5e11-487a-b4cf-2c8c8b240529" d="m721.26,793.8h-33.95c-8.5,0-15.38-6.89-15.38-15.38v-.56h64.71v.56c0,8.5-6.89,15.38-15.38,15.38Z"/><path class="uuid-e2f6e7eb-5e11-487a-b4cf-2c8c8b240529" d="m850.69,793.8h-33.95c-8.5,0-15.38-6.89-15.38-15.38v-.56h64.71v.56c0,8.5-6.89,15.38-15.38,15.38Z"/><path class="uuid-e2f6e7eb-5e11-487a-b4cf-2c8c8b240529" d="m980.12,793.8h-33.95c-8.5,0-15.38-6.89-15.38-15.38v-.56h64.71v.56c0,8.5-6.89,15.38-15.38,15.38Z"/><path class="uuid-e2f6e7eb-5e11-487a-b4cf-2c8c8b240529" d="m1109.54,793.8h-33.95c-8.5,0-15.38-6.89-15.38-15.38v-.56h64.71v.56c0,8.5-6.89,15.38-15.38,15.38Z"/><path class="uuid-e2f6e7eb-5e11-487a-b4cf-2c8c8b240529" d="m1238.97,793.8h-33.95c-8.5,0-15.38-6.89-15.38-15.38v-.56h64.71v.56c0,8.5-6.89,15.38-15.38,15.38Z"/></g><g><path class="uuid-d64acd06-d876-4925-af8f-79a20c42fc90" d="m1368.4,793.8h-33.95c-8.5,0-15.38-6.89-15.38-15.38v-.56h64.71v.56c0,8.5-6.89,15.38-15.38,15.38Z"/><path class="uuid-d64acd06-d876-4925-af8f-79a20c42fc90" d="m1497.83,793.8h-33.95c-8.5,0-15.38-6.89-15.38-15.38v-.56h64.71v.56c0,8.5-6.89,15.38-15.38,15.38Z"/><path class="uuid-d64acd06-d876-4925-af8f-79a20c42fc90" d="m462.41,793.8h-33.95c-8.5,0-15.38-6.89-15.38-15.38v-.56h64.71v.56c0,8.5-6.89,15.38-15.38,15.38Z"/><path class="uuid-d64acd06-d876-4925-af8f-79a20c42fc90" d="m462.41,793.8h-33.95c-8.5,0-15.38-6.89-15.38-15.38v-.56h64.71v.56c0,8.5-6.89,15.38-15.38,15.38Z"/><path class="uuid-d64acd06-d876-4925-af8f-79a20c42fc90" d="m591.84,793.8h-33.95c-8.5,0-15.38-6.89-15.38-15.38v-.56h64.71v.56c0,8.5-6.89,15.38-15.38,15.38Z"/><path class="uuid-d64acd06-d876-4925-af8f-79a20c42fc90" d="m721.26,793.8h-33.95c-8.5,0-15.38-6.89-15.38-15.38v-.56h64.71v.56c0,8.5-6.89,15.38-15.38,15.38Z"/><path class="uuid-d64acd06-d876-4925-af8f-79a20c42fc90" d="m850.69,793.8h-33.95c-8.5,0-15.38-6.89-15.38-15.38v-.56h64.71v.56c0,8.5-6.89,15.38-15.38,15.38Z"/><path class="uuid-d64acd06-d876-4925-af8f-79a20c42fc90" d="m980.12,793.8h-33.95c-8.5,0-15.38-6.89-15.38-15.38v-.56h64.71v.56c0,8.5-6.89,15.38-15.38,15.38Z"/><path class="uuid-d64acd06-d876-4925-af8f-79a20c42fc90" d="m1109.54,793.8h-33.95c-8.5,0-15.38-6.89-15.38-15.38v-.56h64.71v.56c0,8.5-6.89,15.38-15.38,15.38Z"/><path class="uuid-d64acd06-d876-4925-af8f-79a20c42fc90" d="m1238.97,793.8h-33.95c-8.5,0-15.38-6.89-15.38-15.38v-.56h64.71v.56c0,8.5-6.89,15.38-15.38,15.38Z"/></g><g><path class="uuid-76bcb543-363a-4f7f-8e07-863991d255e4" d="m477.79,777.86h64.71v.56c0,8.49-6.89,15.38-15.38,15.38h-33.95c-8.49,0-15.38-6.89-15.38-15.38v-.56h0Z"/><path class="uuid-76bcb543-363a-4f7f-8e07-863991d255e4" d="m607.22,777.86h64.71v.56c0,8.49-6.89,15.38-15.38,15.38h-33.95c-8.49,0-15.38-6.89-15.38-15.38v-.56h0Z"/><path class="uuid-76bcb543-363a-4f7f-8e07-863991d255e4" d="m736.64,777.86h64.71v.56c0,8.49-6.89,15.38-15.38,15.38h-33.95c-8.49,0-15.38-6.89-15.38-15.38v-.56h0Z"/><path class="uuid-76bcb543-363a-4f7f-8e07-863991d255e4" d="m866.07,777.86h64.71v.56c0,8.49-6.89,15.38-15.38,15.38h-33.95c-8.49,0-15.38-6.89-15.38-15.38v-.56h0Z"/><path class="uuid-76bcb543-363a-4f7f-8e07-863991d255e4" d="m995.5,777.86h64.71v.56c0,8.49-6.89,15.38-15.38,15.38h-33.95c-8.49,0-15.38-6.89-15.38-15.38v-.56h0Z"/><path class="uuid-76bcb543-363a-4f7f-8e07-863991d255e4" d="m1124.93,777.86h64.71v.56c0,8.49-6.89,15.38-15.38,15.38h-33.95c-8.49,0-15.38-6.89-15.38-15.38v-.56h0Z"/><path class="uuid-76bcb543-363a-4f7f-8e07-863991d255e4" d="m1254.35,777.86h64.71v.56c0,8.49-6.89,15.38-15.38,15.38h-33.95c-8.49,0-15.38-6.89-15.38-15.38v-.56h0Z"/><path class="uuid-76bcb543-363a-4f7f-8e07-863991d255e4" d="m1383.78,777.86h64.71v.56c0,8.49-6.89,15.38-15.38,15.38h-33.95c-8.49,0-15.38-6.89-15.38-15.38v-.56h0Z"/></g></g></g><path class="uuid-ee725844-d5dc-4302-98f0-7beeb8c2b09e" d="m554.95,590.34h816.38c10.18,0,18.44,8.26,18.44,18.44v31.29h-853.25v-31.29c0-10.18,8.26-18.44,18.44-18.44Z"/><g><polygon class="uuid-1ad8166f-662d-4da3-ac9b-d52832f0a5e4" points="1043.86 1106.57 875.97 1106.57 881.61 1096.13 1038.22 1096.13 1043.86 1106.57"/><polygon class="uuid-1ad8166f-662d-4da3-ac9b-d52832f0a5e4" points="1409.53 1072.41 1032.59 1072.41 1045.27 1061.97 1396.86 1061.97 1409.53 1072.41"/><polygon class="uuid-1ad8166f-662d-4da3-ac9b-d52832f0a5e4" points="887.52 1072.41 510.58 1072.41 523.25 1061.97 874.85 1061.97 887.52 1072.41"/><polygon class="uuid-1ad8166f-662d-4da3-ac9b-d52832f0a5e4" points="1053.55 1124.48 866.28 1124.48 873.25 1111.6 1046.58 1111.6 1053.55 1124.48"/><polygon class="uuid-1ad8166f-662d-4da3-ac9b-d52832f0a5e4" points="1065.77 1147.07 854.06 1147.07 862.88 1130.76 1056.95 1130.76 1065.77 1147.07"/></g><rect class="uuid-871766eb-bf7d-4b42-9922-54399ce571bb" x="901.97" y="916.07" width="121.11" height="18"/><g><rect class="uuid-871766eb-bf7d-4b42-9922-54399ce571bb" x="900.47" y="1080.25" width="122.61" height="12"/><rect class="uuid-7afde6b8-ac82-44e8-9a43-c39d141b577f" x="1031.89" y="1073.16" width="377.65" height="5"/><rect class="uuid-7afde6b8-ac82-44e8-9a43-c39d141b577f" x="510.23" y="1073.16" width="377.65" height="5"/><rect class="uuid-7afde6b8-ac82-44e8-9a43-c39d141b577f" x="875.5" y="1107.07" width="168.83" height="5"/><rect class="uuid-7afde6b8-ac82-44e8-9a43-c39d141b577f" x="866.28" y="1124.98" width="187.27" height="5"/><rect class="uuid-7afde6b8-ac82-44e8-9a43-c39d141b577f" x="854.06" y="1147.16" width="211.71" height="5"/></g><path class="uuid-eeea2be1-e3a8-486f-87df-9eabe8401ee0" d="m745.53,540.42h428.77c13.73,0,24.88,11.15,24.88,24.88v22.1h-478.54v-22.1c0-13.73,11.15-24.88,24.88-24.88Z"/><path class="uuid-eeea2be1-e3a8-486f-87df-9eabe8401ee0" d="m1255.83,891.22l16.98-10.43s-5.26-10.43-11.72-18.93c-6.47-8.5-14.55-9.92-14.55-9.92l-11.37-1.19-8.79,5.44c-2.55,1.58-6.04,1.4-8.36-.43l-6.33-5-14.23,1.19s-8.09,1.42-14.55,9.92c-6.47,8.5-11.72,18.93-11.72,18.93l16.98,10.43,6.06-8.34s10.11,20.51,10.11,24.34-12.13,13.66-14.55,51.13c-.81,12.49,1.62,22.92,1.62,22.92h61.21s2.43-10.43,1.62-22.92c-2.43-37.47-14.55-47.3-14.55-51.13s10.11-24.34,10.11-24.34l6.06,8.34Z"/><path class="uuid-7afde6b8-ac82-44e8-9a43-c39d141b577f" d="m1004.12,927.57h-84.24c-1.38,0-2.5-1.12-2.5-2.5s1.12-2.5,2.5-2.5h84.24c1.38,0,2.5,1.12,2.5,2.5s-1.12,2.5-2.5,2.5Z"/><rect class="uuid-871766eb-bf7d-4b42-9922-54399ce571bb" x="536.52" y="627.02" width="853.25" height="12"/><path class="uuid-eeea2be1-e3a8-486f-87df-9eabe8401ee0" d="m1222,1047.32c-.55,0-1-.45-1-1v-208.59c0-.55.45-1,1-1s1,.45,1,1v208.59c0,.55-.45,1-1,1Z"/><rect class="uuid-eeea2be1-e3a8-486f-87df-9eabe8401ee0" x="1194.59" y="1043.91" width="54.71" height="9.95"/><path class="uuid-5e6de6b4-20a9-47a6-9bca-603f47893ea0" d="m955.65,1176.55c.96.5,1.91,1.03,2.77,1.69.42.33.83.71,1.11,1.18.13.24.23.51.2.79-.02.28-.16.53-.34.74-.78.79-1.87,1.11-2.9,1.43-1.04.3-2.11.51-3.18.7-4.28.72-8.61,1.07-12.92,1.41-8.64.64-17.3,1.1-25.93,1.77-8.63.67-17.27,1.48-25.8,2.92-4.26.73-8.5,1.61-12.62,2.87-2.06.63-4.09,1.36-6.03,2.26-1.94.9-3.81,1.97-5.39,3.37-.79.68-1.45,1.51-2.16,2.34-.68.83-1.35,1.67-1.98,2.54-1.26,1.73-2.39,3.56-3.23,5.5-.83,1.94-1.33,4.03-1.09,6.07.21,2.04,1.27,3.9,2.74,5.37,1.47,1.47,3.28,2.62,5.18,3.57,1.9.96,3.9,1.74,5.94,2.41,4.07,1.35,8.28,2.33,12.51,3.18,8.47,1.67,17.06,2.82,25.64,3.91l25.81,3.13c17.21,2.12,34.42,4.51,51.44,8.03,17,3.53,33.89,8.13,49.95,15.04,4.01,1.73,7.96,3.61,11.82,5.66,1.94,1.02,3.84,2.1,5.73,3.21l1.41.84c.5.31,1,.64,1.49,1.02.94.77,1.98,1.71,2.47,3.31.23.79.21,1.71-.04,2.47-.24.77-.65,1.39-1.07,1.92-.87,1.04-1.85,1.76-2.83,2.4-1.98,1.27-4.02,2.18-6.09,3.01-4.13,1.64-8.33,2.89-12.55,4.03-8.44,2.26-16.96,4.02-25.5,5.65-8.54,1.61-17.1,3.05-25.68,4.39-34.31,5.31-68.76,9.36-103.22,13.23l-51.69,5.66c-8.6.96-17.22,1.9-25.76,3.03l-6.42.91-6.48.84-12.94,1.52c-17.22,1.96-34.43,3.85-51.46,6.47-8.51,1.33-16.99,2.81-25.26,4.82-4.12,1.02-8.21,2.17-12.01,3.66-1.89.75-3.72,1.6-5.25,2.58-.76.49-1.42,1.02-1.89,1.52-.47.51-.65.93-.67,1.12-.03.18,0,.43.3.95.31.5.82,1.1,1.47,1.68,1.31,1.16,2.99,2.24,4.75,3.22.88.49,1.79.95,2.73,1.41l2.9,1.39c1.92.94,3.89,1.8,5.83,2.7,7.82,3.51,15.79,6.66,23.88,9.53,16.18,5.75,32.83,10.19,49.56,14.83,16.73,4.63,33.54,9.62,49.82,16.21,4.09,1.64,8.08,3.34,12.14,5.19,4.07,1.9,8.1,4.01,11.97,6.81,1.93,1.43,3.83,3.02,5.53,5.13.85,1.06,1.64,2.25,2.27,3.66.63,1.4,1.05,3.04,1.07,4.75.04,1.71-.37,3.41-1,4.86-.63,1.46-1.48,2.68-2.37,3.75-1.8,2.12-3.81,3.65-5.82,4.99-4.05,2.64-8.23,4.49-12.44,6.14-4.21,1.62-8.45,2.98-12.72,4.19-8.53,2.42-17.13,4.27-25.76,5.83-8.63,1.56-17.31,2.81-26.01,3.79-8.71.97-17.45,1.7-26.29,1.97-4.42.12-8.88.15-13.46-.18l-12.91-.82c-8.62-.46-17.24-.92-25.88-1.23-8.63-.38-17.28-.6-25.92-.88-8.65-.21-17.29-.46-25.95-.6-34.61-.67-69.24-.9-103.88-.93-69.28-.02-138.57.74-207.86,1.79l-103.94,1.79-51.98.99c-17.35.31-34.62.69-52.09.84l14.47-14.99c17.19.01,20.11-.21,37.42-.36l51.99-.51,104.01-.83c69.34-.4,138.69-.52,208.06.13,34.68.35,69.37.9,104.07,1.89,8.67.23,17.35.56,26.02.84,8.68.36,17.35.67,26.03,1.13,8.68.39,17.36.93,26.04,1.48l13.03.95c4.06.33,8.28.34,12.52.26,8.48-.19,17.04-.82,25.55-1.7,8.52-.89,17.02-2.04,25.46-3.49,8.43-1.45,16.81-3.19,24.98-5.43,4.08-1.12,8.11-2.38,12-3.84,3.87-1.47,7.66-3.15,10.89-5.23,1.6-1.03,3.05-2.19,4.07-3.37.5-.59.9-1.17,1.13-1.7.23-.53.34-.99.33-1.45.03-.88-.48-2.1-1.49-3.39-1.01-1.28-2.42-2.53-3.96-3.69-3.13-2.32-6.79-4.3-10.55-6.09-1.87-.89-3.88-1.75-5.81-2.63-1.97-.84-3.92-1.7-5.91-2.5-15.81-6.56-32.24-11.61-48.86-16.37-16.62-4.76-33.45-9.41-49.9-15.42-8.22-3-16.35-6.3-24.31-9.95-1.98-.94-3.98-1.83-5.94-2.81l-2.95-1.44c-1-.5-2.02-1.03-3.03-1.6-2.01-1.14-4.01-2.4-5.93-4.14-.96-.87-1.91-1.9-2.71-3.26-.4-.7-.75-1.49-.96-2.39-.22-.9-.28-1.92-.11-2.88.33-1.97,1.36-3.46,2.36-4.52,1.02-1.07,2.09-1.87,3.16-2.54,2.13-1.34,4.27-2.27,6.41-3.11,4.28-1.63,8.57-2.78,12.87-3.81,8.59-2.01,17.21-3.44,25.84-4.7,17.25-2.5,34.53-4.24,51.76-6.04l12.9-1.4,6.41-.77,6.45-.86c8.66-1.06,17.28-1.93,25.9-2.81l51.73-5.2c34.46-3.56,68.91-7.29,103.16-12.28,8.56-1.26,17.1-2.61,25.61-4.14,8.5-1.54,16.98-3.22,25.3-5.36,4.15-1.09,8.28-2.28,12.22-3.8,1.96-.77,3.89-1.62,5.57-2.69.83-.53,1.61-1.12,2.14-1.75.26-.31.45-.62.53-.89.09-.27.09-.48.03-.73-.12-.51-.69-1.2-1.42-1.77-.36-.29-.76-.57-1.18-.83l-1.37-.84c-1.84-1.1-3.69-2.18-5.58-3.2-3.77-2.05-7.63-3.93-11.56-5.67-15.74-6.95-32.44-11.68-49.31-15.35-16.89-3.66-34.03-6.2-51.19-8.48l-25.78-3.37c-8.59-1.17-17.19-2.4-25.71-4.17-4.25-.9-8.5-1.92-12.64-3.34-2.07-.71-4.11-1.53-6.07-2.53-1.96-1-3.85-2.23-5.43-3.84-1.57-1.59-2.77-3.72-2.99-6.02-.24-2.29.34-4.55,1.23-6.57.9-2.03,2.08-3.9,3.39-5.66.65-.88,1.34-1.73,2.04-2.57.71-.81,1.41-1.68,2.27-2.41,1.68-1.47,3.63-2.55,5.62-3.46,2-.9,4.06-1.62,6.15-2.25,4.18-1.24,8.45-2.09,12.73-2.78,8.58-1.37,17.23-2.11,25.87-2.71,8.65-.6,17.31-.98,25.95-1.55,4.32-.31,8.65-.62,12.92-1.3,1.07-.18,2.13-.39,3.17-.67,1.02-.3,2.11-.62,2.88-1.39.39-.39.43-1.01.14-1.47-.27-.46-.67-.84-1.1-1.18-.85-.67-1.8-1.2-2.76-1.71Z"/><g><circle class="uuid-f9d218ab-3001-489e-b654-1daff4270e69" cx="1279.54" cy="359.69" r="52.5" transform="translate(457.57 1404.18) rotate(-67.5)"/><circle class="uuid-f9d218ab-3001-489e-b654-1daff4270e69" cx="1342.7" cy="392.26" r="46.7"/><circle class="uuid-f9d218ab-3001-489e-b654-1daff4270e69" cx="1206.78" cy="399.1" r="39.86"/><circle class="uuid-f9d218ab-3001-489e-b654-1daff4270e69" cx="1150.03" cy="419.85" r="27.6"/><circle class="uuid-f9d218ab-3001-489e-b654-1daff4270e69" cx="1392.48" cy="419.85" r="20.25"/><circle class="uuid-f9d218ab-3001-489e-b654-1daff4270e69" cx="1407.38" cy="434.75" r="14.9"/><polygon class="uuid-f9d218ab-3001-489e-b654-1daff4270e69" points="1408.88 444.45 1275.69 388.88 1126.74 434.65 1097.33 448.51 1452.75 448.51 1408.88 444.45"/></g><g><ellipse class="uuid-f9d218ab-3001-489e-b654-1daff4270e69" cx="556.65" cy="295.69" rx="41.87" ry="37.07"/><ellipse class="uuid-f9d218ab-3001-489e-b654-1daff4270e69" cx="506.28" cy="318.68" rx="37.24" ry="32.98"/><ellipse class="uuid-f9d218ab-3001-489e-b654-1daff4270e69" cx="614.68" cy="323.51" rx="31.79" ry="28.15"/><ellipse class="uuid-f9d218ab-3001-489e-b654-1daff4270e69" cx="659.94" cy="338.17" rx="22.01" ry="19.49"/><ellipse class="uuid-f9d218ab-3001-489e-b654-1daff4270e69" cx="466.58" cy="338.17" rx="16.15" ry="14.3"/><ellipse class="uuid-f9d218ab-3001-489e-b654-1daff4270e69" cx="454.7" cy="348.69" rx="11.88" ry="10.52"/><polygon class="uuid-f9d218ab-3001-489e-b654-1daff4270e69" points="453.5 355.54 559.72 316.3 678.51 348.62 701.96 358.4 418.51 358.4 453.5 355.54"/></g><g><rect class="uuid-871766eb-bf7d-4b42-9922-54399ce571bb" x="1531.47" y="739.61" width="6" height="354.97"/><polygon class="uuid-871766eb-bf7d-4b42-9922-54399ce571bb" points="1552.83 1120.2 1516.12 1120.2 1521.62 1022.79 1547.33 1022.79 1552.83 1120.2"/><rect class="uuid-871766eb-bf7d-4b42-9922-54399ce571bb" x="1527.3" y="739.23" width="14.12" height="5"/><rect class="uuid-871766eb-bf7d-4b42-9922-54399ce571bb" x="1508.71" y="1117.7" width="51.53" height="5"/><g><polygon class="uuid-ea9f243f-14a4-4a3b-a93e-73d7fbd80844" points="1546.84 735.85 1522.11 735.85 1518.14 685.29 1550.81 685.29 1546.84 735.85"/><path class="uuid-871766eb-bf7d-4b42-9922-54399ce571bb" d="m1549.15,738.35h-29.36l-4.36-55.56h38.08l-4.36,55.56Zm-24.74-5h20.11l3.58-45.56h-27.27l3.58,45.56Z"/></g><polygon class="uuid-871766eb-bf7d-4b42-9922-54399ce571bb" points="1534.47 661.96 1509.06 683.18 1559.89 683.18 1534.47 661.96"/><polygon class="uuid-871766eb-bf7d-4b42-9922-54399ce571bb" points="1531.86 664.02 1534.71 645.26 1536.86 664.11 1531.86 664.02"/></g></g><g><path class="uuid-d104b65b-1ccc-4b9c-9d6b-2a007ae7c881" d="m214.47,1378.15v-112.04h-61.03c-3.04,0-5.88,1.54-7.54,4.09l-31.53,48.43-35.24,14.42c-5.65,2.31-9.56,7.56-10.15,13.64l-4.45,47.94h149.93v-16.48Z"/><path class="uuid-ea9f243f-14a4-4a3b-a93e-73d7fbd80844" d="m207.77,1276.76v40.08c0,2.24-1.82,4.06-4.06,4.06h-76.77c-1.25,0-2.26-1.02-2.26-2.26l26.24-41.78c1.62-2.58,4.46-4.14,7.5-4.14h45.29c.57,0,1.12.12,1.61.33,1.45.63,2.45,2.05,2.45,3.72Z"/><path class="uuid-a9ee7f68-cf3f-46df-a290-f660d78469c8" d="m203.7,1276.21c.12,0,.22.03.3.09.11.08.14.11.14.12.09.15.11.23.11.33v40.08c0,.31-.25.56-.56.56h-74.12l24.29-38.68c.99-1.57,2.68-2.51,4.54-2.51h45.29Zm0-3.5h-45.29c-3.05,0-5.88,1.56-7.5,4.14l-26.24,41.78c0,1.25,1.02,2.26,2.26,2.26h76.77c2.24,0,4.06-1.82,4.06-4.06v-40.08c0-.78-.22-1.51-.61-2.12-.26-.43-.61-.81-1-1.1-.68-.53-1.53-.83-2.45-.83h0Z"/><g><polygon class="uuid-ca9c6e01-e658-456f-ae6e-8243789cbd69" points="186.8 1272.71 154.69 1320.89 143.69 1320.89 175.82 1272.71 186.8 1272.71"/><polygon class="uuid-ca9c6e01-e658-456f-ae6e-8243789cbd69" points="196.88 1272.71 164.74 1320.89 161.62 1320.89 193.76 1272.71 196.88 1272.71"/><polygon class="uuid-ca9c6e01-e658-456f-ae6e-8243789cbd69" points="202.35 1272.71 170.21 1320.89 168.34 1320.89 200.48 1272.71 202.35 1272.71"/></g><path class="uuid-ee725844-d5dc-4302-98f0-7beeb8c2b09e" d="m454.37,1238.56v156.07h-236.03v-156.07c0-5.12,4.15-9.27,9.27-9.27h217.5c5.11,0,9.27,4.14,9.27,9.27Z"/><rect class="uuid-871766eb-bf7d-4b42-9922-54399ce571bb" x="175.23" y="1408.62" width="175.2" height="4.67"/><rect class="uuid-871766eb-bf7d-4b42-9922-54399ce571bb" x="214.94" y="1320.89" width="3.5" height="73.42"/><rect class="uuid-871766eb-bf7d-4b42-9922-54399ce571bb" x="333.6" y="1273.71" width="4.67" height="241.51" transform="translate(-1058.97 1728.59) rotate(-89.93)"/><path class="uuid-7afde6b8-ac82-44e8-9a43-c39d141b577f" d="m454.36,1407.44H138.02c-3.22,0-5.84-2.61-5.84-5.84s2.61-5.84,5.84-5.84h316.35c3.22,0,5.84,2.61,5.84,5.84s-2.61,5.84-5.84,5.84Z"/><path class="uuid-7afde6b8-ac82-44e8-9a43-c39d141b577f" d="m114.95,1408.61h-47.44c-5.16,0-9.34-4.18-9.34-9.34s4.18-9.34,9.34-9.34h47.44c5.16,0,9.34,4.18,9.34,9.34s-4.18,9.34-9.34,9.34Z"/><path class="uuid-7afde6b8-ac82-44e8-9a43-c39d141b577f" d="m177.53,1407.46h-29.18c0-4.13-3.36-7.5-7.5-7.5s-7.5,3.36-7.5,7.5h-29.18c0-20.22,16.45-36.68,36.68-36.68s36.68,16.45,36.68,36.68Z"/><g><circle class="uuid-ee725844-d5dc-4302-98f0-7beeb8c2b09e" cx="140.85" cy="1410.96" r="22.09" transform="translate(-320.4 70.11) rotate(-13.28)"/><path class="uuid-871766eb-bf7d-4b42-9922-54399ce571bb" d="m140.85,1441.22c-16.68,0-30.26-13.57-30.26-30.26s13.57-30.26,30.26-30.26,30.26,13.57,30.26,30.26-13.57,30.26-30.26,30.26Zm0-44.17c-7.67,0-13.92,6.24-13.92,13.92s6.24,13.92,13.92,13.92,13.92-6.24,13.92-13.92-6.24-13.92-13.92-13.92Z"/></g><path class="uuid-7afde6b8-ac82-44e8-9a43-c39d141b577f" d="m421.63,1407.46h-29.18c0-4.13-3.36-7.5-7.5-7.5s-7.5,3.36-7.5,7.5h-29.18c0-20.22,16.45-36.68,36.68-36.68s36.68,16.45,36.68,36.68Z"/><g><circle class="uuid-ee725844-d5dc-4302-98f0-7beeb8c2b09e" cx="384.95" cy="1410.96" r="22.09" transform="translate(-221.04 79.88) rotate(-9.22)"/><path class="uuid-871766eb-bf7d-4b42-9922-54399ce571bb" d="m384.95,1441.22c-16.68,0-30.26-13.57-30.26-30.26s13.57-30.26,30.26-30.26,30.26,13.57,30.26,30.26-13.57,30.26-30.26,30.26Zm0-44.17c-7.67,0-13.92,6.24-13.92,13.92s6.24,13.92,13.92,13.92,13.92-6.24,13.92-13.92-6.24-13.92-13.92-13.92Z"/></g><path class="uuid-7afde6b8-ac82-44e8-9a43-c39d141b577f" d="m389.15,1406.61l8.24-1.44.89,2.53-7.33,4.02c-.65.36-.89,1.17-.55,1.83l3.92,7.39-2.13,1.62-6.09-5.73c-.54-.51-1.39-.49-1.91.04l-5.82,6.01-2.2-1.52,3.57-7.56c.32-.67.04-1.47-.63-1.8l-7.51-3.68.77-2.56,8.3,1.06c.74.09,1.41-.42,1.52-1.16l1.17-8.28,2.68-.06,1.56,8.22c.14.73.84,1.21,1.57,1.08Z"/><path class="uuid-a18111cd-6746-432d-94ae-12409d119808" d="m387.83,1410.96c0-1.59-1.29-2.87-2.87-2.87s-2.87,1.29-2.87,2.87,1.29,2.87,2.87,2.87,2.87-1.29,2.87-2.87Z"/><path class="uuid-7afde6b8-ac82-44e8-9a43-c39d141b577f" d="m145.07,1406.61l8.24-1.44.89,2.53-7.33,4.02c-.65.36-.89,1.17-.55,1.83l3.92,7.39-2.13,1.62-6.09-5.73c-.54-.51-1.39-.49-1.91.04l-5.82,6.01-2.2-1.52,3.57-7.56c.32-.67.04-1.47-.63-1.8l-7.51-3.68.77-2.56,8.3,1.06c.74.09,1.41-.42,1.52-1.16l1.17-8.28,2.68-.06,1.56,8.22c.14.73.84,1.21,1.57,1.08Z"/><path class="uuid-a18111cd-6746-432d-94ae-12409d119808" d="m143.74,1410.96c0-1.59-1.29-2.87-2.87-2.87s-2.87,1.29-2.87,2.87,1.29,2.87,2.87,2.87,2.87-1.29,2.87-2.87Z"/><polygon class="uuid-d64acd06-d876-4925-af8f-79a20c42fc90" points="208.93 1383.27 175.09 1383.27 175.09 1380.94 206.6 1380.94 206.6 1321.82 208.93 1321.82 208.93 1383.27"/><rect class="uuid-d64acd06-d876-4925-af8f-79a20c42fc90" x="123.51" y="1322.23" width="2.33" height="42.98"/><path class="uuid-ee725844-d5dc-4302-98f0-7beeb8c2b09e" d="m199.97,1331.54h-10.15c-.65,0-1.17-.52-1.17-1.17s.52-1.17,1.17-1.17h10.15c.65,0,1.17.52,1.17,1.17s-.52,1.17-1.17,1.17Z"/><path class="uuid-ee725844-d5dc-4302-98f0-7beeb8c2b09e" d="m78.95,1380.6h-11.71c-1.97,0-3.52-1.69-3.34-3.65l.6-6.61c.16-1.73,1.6-3.05,3.34-3.05h11.11v13.32Z"/><g><path class="uuid-1ad8166f-662d-4da3-ac9b-d52832f0a5e4" d="m274.45,1292.89v1.01c0,7.49-5.23,12.85-12.32,12.85h-8.92v-26.73h8.76c7.27,0,12.49,5.38,12.49,12.87Zm-7.01-.04c0-4.83-1.91-7.29-5.47-7.29h-1.91v15.66h2.07c3.34,0,5.31-2.37,5.31-7.33v-1.05Z"/><path class="uuid-1ad8166f-662d-4da3-ac9b-d52832f0a5e4" d="m284.34,1285.56v4.83h9.93v5.32h-9.93v5.51h11.77v5.53h-18.62v-26.73h18.69v5.54h-11.84Z"/><path class="uuid-1ad8166f-662d-4da3-ac9b-d52832f0a5e4" d="m316.35,1301.22v5.53h-17.87v-26.73h6.85v21.21h11.02Z"/><path class="uuid-1ad8166f-662d-4da3-ac9b-d52832f0a5e4" d="m319.36,1306.75v-26.73h6.81v26.73h-6.81Z"/><path class="uuid-1ad8166f-662d-4da3-ac9b-d52832f0a5e4" d="m353.68,1280.02l-8.87,26.73h-7.62l-8.8-26.73h7.62l4.99,18.82,4.98-18.82h7.69Z"/><path class="uuid-1ad8166f-662d-4da3-ac9b-d52832f0a5e4" d="m362.24,1285.56v4.83h9.93v5.32h-9.93v5.51h11.77v5.53h-18.62v-26.73h18.69v5.54h-11.84Z"/><path class="uuid-1ad8166f-662d-4da3-ac9b-d52832f0a5e4" d="m398.25,1306.46v.29h-7.34l-4.5-9.03h-3.18v9.03h-6.85v-26.73h10.78c6.19,0,10.23,2.81,10.23,8.08,0,4.37-1.84,6.39-4.59,7.73l5.45,10.63Zm-15.02-14.3h3.93c2.24,0,3.38-1.14,3.38-3.29s-1.23-3.3-3.38-3.3h-3.93v6.59Z"/><path class="uuid-1ad8166f-662d-4da3-ac9b-d52832f0a5e4" d="m414,1280.02h7.36l-8.52,17.24v9.49h-6.98v-9.49l-8.54-17.24h7.36l4.66,11.13,4.65-11.13Z"/></g><rect class="uuid-1ad8166f-662d-4da3-ac9b-d52832f0a5e4" x="250.33" y="1326.81" width="173.41" height="3.5"/><path class="uuid-871766eb-bf7d-4b42-9922-54399ce571bb" d="m137.69,1323.4c-.41,0-.8-.21-1.01-.59l-6.73-11.79c-.32-.56-.13-1.27.43-1.59.56-.32,1.27-.13,1.59.43l6.73,11.79c.32.56.13,1.27-.43,1.59-.18.1-.38.15-.58.15Z"/><path class="uuid-871766eb-bf7d-4b42-9922-54399ce571bb" d="m127.72,1322.76c-.16,0-.33-.07-.44-.2-.21-.24-.18-.61.06-.82l5.99-5.16c.25-.21.61-.18.82.06.21.24.18.61-.06.82l-5.99,5.16c-.11.09-.25.14-.38.14Z"/><path class="uuid-4ebedf94-620a-4ad6-9d5f-065a33d61d1b" d="m454.37,1238.56v3.64h-236.03v-3.64c0-5.12,4.15-9.27,9.27-9.27h217.5c5.11,0,9.27,4.14,9.27,9.27Z"/><path class="uuid-871766eb-bf7d-4b42-9922-54399ce571bb" d="m128.28,1322.67c0,.53-.43.95-.95.95s-.95-.43-.95-.95.43-.95.95-.95.95.43.95.95Z"/><g><polygon class="uuid-ca9c6e01-e658-456f-ae6e-8243789cbd69" points="186.8 1272.71 154.69 1320.89 143.69 1320.89 175.82 1272.71 186.8 1272.71"/><polygon class="uuid-ca9c6e01-e658-456f-ae6e-8243789cbd69" points="196.88 1272.71 164.74 1320.89 161.62 1320.89 193.76 1272.71 196.88 1272.71"/><polygon class="uuid-ca9c6e01-e658-456f-ae6e-8243789cbd69" points="202.35 1272.71 170.21 1320.89 168.34 1320.89 200.48 1272.71 202.35 1272.71"/></g></g></g><text class="uuid-7336a1a6-9750-4c2b-8325-8ee0302b9af5" transform="translate(31.7 192.38)"><tspan class="uuid-59949e18-0cb2-428b-a50c-946c55a6a3e8" x="0" y="0">C</tspan><tspan x="104.65" y="0">ar</tspan><tspan class="uuid-59949e18-0cb2-428b-a50c-946c55a6a3e8" x="256.8" y="0">r</tspan><tspan x="319.1" y="0">o de c</tspan><tspan class="uuid-f55bf955-f27e-4da3-b1f4-5a6ea07f9e31" x="688.11" y="0">o</tspan><tspan x="763.46" y="0">m</tspan><tspan class="uuid-f7167448-ebc0-4aac-af46-48cf7e778b18" x="882.76" y="0">pr</tspan><tspan x="1029.75" y="0">as </tspan><tspan class="uuid-f55bf955-f27e-4da3-b1f4-5a6ea07f9e31" x="1192.84" y="0">v</tspan><tspan x="1268.51" y="0">acio</tspan></text></svg>