<?xml version="1.0" encoding="UTF-8"?>
<svg id="_Ñëîé_1" data-name="Ñëîé 1" xmlns="http://www.w3.org/2000/svg" viewBox="0 0 4611.13 2684.65">
  <defs>
    <style>
      .cls-1 {
        fill: #dee8fe;
      }

      .cls-2 {
        fill: #fff;
      }

      .cls-3 {
        fill: #9bc7f8;
      }

      .cls-4 {
        fill: #4134d6;
      }

      .cls-5 {
        fill: #bfbfbf;
      }

      .cls-6 {
        fill: #c5e1f9;
      }

      .cls-7 {
        fill: #691f3e;
      }

      .cls-8 {
        fill: #e14450;
      }

      .cls-9 {
        fill: #fe666a;
      }

      .cls-10 {
        fill: #010000;
      }

      .cls-11 {
        fill: #4e5676;
      }

      .cls-12 {
        fill: #0a285e;
      }

      .cls-13 {
        fill: #f3f3f3;
      }

      .cls-14 {
        fill: #4b4ef1;
      }

      .cls-15 {
        fill: #7eb3ff;
      }

      .cls-16 {
        fill: #e9f6ff;
      }

      .cls-17 {
        fill: #4150d6;
      }
    </style>
  </defs>
  <rect class="cls-2" x="20.37" y="65.29" width="4408.24" height="2573.62"/>
  <path class="cls-16" d="m4188.77,2537.56c-8.56,70.81-20.22,39.88-34.66,104.37H671.86c-41.21-61.89-82.8-31.28-120.6-104.37-156.19-301.94-247.86-680.4,18.45-978,527.76-589.77,345.32-733.65,1184.12-1041.56,838.79-307.91,1395.96,17.91,1565.84,421.38,169.88,403.47,679.52-48.74,944.96,535.24,143.66,316.04-34.31,719.17-75.85,1062.94Z"/>
  <g>
    <path class="cls-15" d="m1229.41,2460.61c-1.28,4.5-2.63,8.96-3.96,13.36-2.32,7.68-4.86,15.29-7.61,22.82-1.39,3.85-2.84,7.67-4.34,11.47-15.78,39.82-37.33,77.23-63.6,110.96-5.29,7.71-10.9,15.3-16.82,22.71-2.47,3.11-5,6.19-7.59,9.23h-302.43c.43-3.1,1-6.18,1.69-9.23.57-2.5,1.21-4.98,1.94-7.44,5.43-18.36,15.4-35.39,26.37-51.46,13.62-31.62,32.69-60.74,55.78-86.24,9.51-10.51,19.7-20.4,30.48-29.6,17.41-14.86,37.51-29.08,59.14-39.84,6.06-3.02,12.24-5.76,18.51-8.17,5.87-3.9,11.82-7.73,17.87-11.41,11.6-7.07,23.39-13.83,35.38-20.21,11.01-5.86,22.19-11.41,33.54-16.57,20.44-9.28,44.65-21.98,67.82-23.66,2.36-.17,4.71-.23,7.04-.16,8.71.26,16.88,2.58,24.17,6.46,13.37,7.09,23.83,19.41,29.35,33.93.57,1.5,1.09,3.01,1.55,4.55,6.83,22.71,2.09,46.11-4.28,68.5Z"/>
    <path class="cls-15" d="m1633.79,2641.93c-.59,3.09-1.25,6.17-1.97,9.23h-228.11c-1.82-3.03-3.54-6.11-5.17-9.23-10.99-21.12-17.67-44.24-20.85-68.17-8.7-20.71-14.25-43.16-15.67-65.5-.25-3.83-.37-7.66-.37-11.47.01-10.26.92-20.44,2.85-30.34.37-1.96.79-3.9,1.25-5.84,1.65-6.96,3.82-13.78,6.54-20.37,2.85-19.15,8.74-37.59,18.93-52.68.52-.77,1.05-1.53,1.59-2.28,1.49-2.06,3.04-3.97,4.66-5.72,8.11-8.83,17.75-13.89,28.06-16.08,24.47-5.19,52.75,5.75,73.51,20.77,6.35.59,12.49,1.71,18.41,3.31,36.88,9.97,65.62,38.52,85.73,73.05,1.24,2.1,2.43,4.21,3.57,6.35,5.24,9.64,9.81,19.67,13.73,29.83,1.47,3.81,2.85,7.64,4.13,11.47,5.5,16.39,9.29,32.86,11.35,48.36,3.7,27.81,3.26,57.2-2.17,85.31Z"/>
    <path class="cls-15" d="m417.82,2351.63c7.84,55.37,63.48,82.09,110.32,99.45,53.32,19.76,110.13,31.25,167,32.83,105.98,2.94,231.26-20.33,304.35-104.06.22-.25.42-.5.64-.75,22.07-9.58,42.16-22.37,57.43-40.67,17.57-21.05,27.47-51.07,21.84-78.31-3.74-18.08-13.04-33.86-25.48-46.92-3.74-11.27-10.71-21.36-21.47-28.72-8.44-5.77-18.16-9.81-28.4-12.83-3.45-2.02-7.1-3.87-10.98-5.51-14.75-6.23-30.46-9.84-46.4-11.72-60.15-19.7-125.6-25.36-187.4-19.27-29.41,2.9-58.79,8.68-87.43,17.2-17.38,2.12-34.66,5.01-51.77,8.95-47.33,10.91-93.56,28.78-132.15,58.89-39.35,30.7-77.62,78.22-70.08,131.44Z"/>
    <path class="cls-15" d="m1524.16,2257.68c-2.73,3.9-4.09,8.99-3.17,15.11,7.46,49.51,50.96,77.34,92.71,97.93,47.68,23.52,99.45,45.37,153.8,40.14,36.14-3.48,74.04-20.76,96.84-49.78,6.47-5.6,12.24-12.12,17.05-19.66,16.5-25.88,14-56.72-3.28-81.5-13.86-19.88-34.51-32.82-55.15-44.64-5.43-3.81-10.91-7.35-16.3-10.6-42.11-25.45-89.81-40.36-139.24-40.4-47.83-.04-111.39,9.8-135.36,57.22-5.63,11.14-8.37,23.75-7.91,36.19Z"/>
    <path class="cls-15" d="m1919.59,1784.49c3.7-35.03-4.18-69.89-36.1-88.71-47.47-28-111.42.08-157.33,19.33-48.98,20.55-96,46.67-138.78,78.2-86.4,63.67-175.45,164.65-136.89,280.12,2.06,6.17,4.7,12.25,7.87,18.07,3.71,6.84,8.16,13.31,13.27,19.17,9.62,11,21.58,19.81,35.45,24.65,29.28,17.76,69.26,22.23,100.5,14.63,25.34-6.16,47.31-17.77,67.49-32.23,18.94-7.08,37.3-15.61,54.69-25.39,44.69-25.12,84.6-57.61,116.56-97.89,28.39-35.76,54.07-81.4,59.71-128.33,8.74-17.19,15.73-35.33,16.56-54.15.43-9.81-.67-18.97-3-27.47Z"/>
    <path class="cls-15" d="m1263.92,1573.91c-6.58,24.31-10.4,48.58-11.92,72.82-2.23,13.7-3.98,27.42-5.17,41.09-3.11,35.76-2.78,72.52,3.86,107.88,6.26,33.36,16.15,73.67,39.74,99.33,3.78,4.11,7.86,7.68,12.18,10.75.32.81.62,1.63.94,2.43,7.64,18.94,20.01,37.52,39.25,46.2,21,9.46,43.19,6.3,62.68-5.08,35.26-20.58,59.91-57.6,78.11-93.15,17.73-34.64,29.46-72.04,38.87-109.68,1.84-7.35,3.48-14.74,5.02-22.14,20.15-64.75,39.55-131.31,48.4-198.6,8.4-63.84,5.64-137.32-25.17-195.43-46.58-87.86-144.63-8.75-184.04,42.88-45.04,59.01-83.29,128.87-102.74,200.71Z"/>
    <path class="cls-15" d="m628.06,1166.64c3.96,100.37,46.76,199.44,85.73,290.55,19.94,46.62,41.6,92.48,64.77,137.59,21.38,41.63,43.45,82.98,70.88,121.01,53.22,73.79,129.17,138.97,224.64,140.36,52.12.76,84.33-38.25,103.5-82.04,9.75-4.5,18.2-13.11,21.81-23.52,4.55-13.1,2.14-25.41-2.73-37.27,3.1-15.08,5.11-30.37,6.12-45.77,3.28-15.71,4.69-31.92,4.78-47.72.54-96.85-50.18-186.47-98.65-266.97-25.75-42.77-53.32-84.45-82.63-124.87-19.8-27.32-40.12-54.81-61.78-81.01-6.74-9.89-13.65-19.66-20.83-29.24-30.23-40.34-65.62-76.21-110.05-100.74-9.21-5.08-18.94-9.57-28.95-13.4-2.98-2.59-6.01-5.11-9.15-7.45-20.32-15.12-45.62-26.44-71.51-22.1-29.75,4.98-50.05,24.26-64.92,49.45-25.19,42.67-32.96,94.29-31.03,143.15Z"/>
    <path class="cls-15" d="m1051.43,1948.72c-6.34-34.84-29.12-62.19-56.71-83.11-28.81-21.83-61.17-39.87-92.77-57.27-1.06-.58-2.13-1.14-3.19-1.72-17.57-11.11-35.37-21.73-52.8-32.28-32.66-19.76-65.74-38.99-99.45-56.9-30.32-16.11-60.95-33.01-93.14-45.12-32.97-12.41-69.17-19.57-104.15-12.13-20.82,4.43-49.05,11.37-69.28,25.31-12.67,8.72-22.22,20.18-24.85,35.47-.91,5.27-1.06,10.75-.62,16.34.74,9.35,3.14,19.02,6.44,28.58,1.65,14.09,5.97,28.12,11.79,40.91.02.05.05.1.07.15-.97,23.46,4.59,47.43,13.6,68.8,24.46,58.08,69.11,106.46,119.8,142.94,52.22,37.59,112.8,68.12,173.81,88.6,36.54,12.27,77.58,18.19,115.15,11.18,16.71.4,33.45-1.59,50.3-7.25,19.99-6.71,38.53-18.86,54.09-33.77,6.65-6.38,12.75-13.25,18.18-20.42,1.14-1.5,2.25-3.02,3.33-4.55,4.96-7.02,9.66-14.54,13.87-22.42,10.17-11.1,16.21-26.25,16.13-42.97,0-.43-.04-.85-.05-1.28,2.28-12.26,2.7-24.75.45-37.09Z"/>
    <path class="cls-14" d="m1541.65,2620.46c-39.38-75.1-71.88-153.88-105.23-231.79-16.64-38.85-33.75-77.39-51.88-115.57-8.83-18.59-18.11-36.93-27.81-55.07-8.62-16.14-18.94-40.18-34.71-50.13-5.88-3.71-12.12.25-12.05,6.95.11,10.16,5.52,19.14,9.4,28.35,3.98,9.45,8.08,18.65,12.47,27.93,9.16,19.32,18,38.81,26.74,58.32,17.27,38.52,33.45,77.55,50.06,116.36,33.3,77.77,62.21,119.68,105.32,192.61,7.42,12.56,34.51,35.05,27.69,22.04h0Z"/>
    <path class="cls-14" d="m1312.94,2180.5c-31,45.55-67.05,87.38-104.28,127.91-19.11,20.81-38.97,40.87-58.81,60.98-17.31,17.54-55.45,51.02-65.97,73.82-3.44,7.45,29.45-17.36,36.24-19.53,23.76-7.59,52.12-41.29,69.63-58.08,20.69-19.83,20.67-16.52,39.9-37.76,37.44-41.35,72.59-85.24,102.72-132.22,8.44-13.17-10.45-28.31-19.43-15.11h0Z"/>
    <path class="cls-14" d="m1317.59,2200.31c74.75,34.21,152.47,60.66,232.63,78.92,40.22,9.17,80.91,16.28,121.86,21.32,19.58,2.41,39.21,4.34,58.89,5.72,19.2,1.35,41.84,4.87,60.19-2.25,9.83-3.82,4.67-5.93-5.01-7.99-23.7-5.04-42.12-8.19-60.34-9.48-19.68-1.39-50.37-10.78-69.97-13.06-40.07-4.67-64.06-8.79-103.48-17.4-78.38-17.12-150.95-48.6-224.64-80.3-15.72-6.76-25.63,17.43-10.14,24.51h0Z"/>
    <path class="cls-14" d="m1336.82,2194.55c64.35-31.3,113.41-70.32,173-109.95,29.24-19.45,55.44-34.22,83.29-55.61,14.25-10.95,30.29-22.96,44.04-34.55,12.72-10.72,33.06-26.98,40.72-41.87,5.03-9.79,3.64-14.36-5.08-11.54-14.7,4.75-28.36,18.49-40.53,27.9-13.55,10.47-27,21.06-40.72,31.32-28.11,21.02-56.86,41.23-86.05,60.71-58.01,38.72-117.89,74.67-179.72,106.93-16.27,8.49-5.8,34.87,11.07,26.67h0Z"/>
    <path class="cls-14" d="m1341.37,2188.57c18.76-99.67,33.57-200.03,50.19-300.08,9.18-55.26,18.39-110.52,28.5-165.62,5.01-27.3,5.68-39.17,10.57-66.5,2.62-14.65,6.85-46.05,9.62-60.68,2.59-13.67,6.01-23.21,5.06-37.18-.82-11.95-2.89-13.21-7.57-4.72-6.68,12.12-13.72,26.44-16.87,39.83-3.42,14.54-5.71,32.09-8.98,46.66-6.08,27.12-16.6,51.55-21.67,78.88-10.23,55.08-19.76,110.29-28.54,165.62-15.9,100.12-30.61,200.42-46.63,300.52-2.71,16.93,23.19,19.95,26.33,3.26h0Z"/>
    <path class="cls-14" d="m1330.46,2184.14c-31.15-60.43-76.22-113.46-113.23-170.38-28.47-43.78-55.13-88.75-81.02-134.1-60.64-106.22-117.81-214.63-170.84-324.84-13.17-27.38-26.05-54.9-38.43-82.64-10.45-23.42-18.25-51.59-34.44-71.64-9.82-12.16-8.43,3.81-7.28,18.84,1.73,22.66,5.44,33.49,14.56,54.02,10.88,24.49,28.72,72.2,40.28,96.38,26.25,54.94,36.33,89.77,64.66,143.66,54.13,102.98,110.9,205.13,173.77,303.07,14.16,22.05,28.78,43.77,44.21,64.95,28.04,38.51,54.63,79.77,87.53,114.32,8.39,8.81,26.91,1.3,20.25-11.64h0Z"/>
    <path class="cls-14" d="m1324.46,2173.51c-191.67-5.11-350.85,33.23-539.38,65.62-20.01,3.44-48.46,21.28-28.15,18.71,187.11-23.67,374.75-56.28,563.94-55.25,18.48.1,22.63-28.58,3.6-29.08h0Z"/>
    <path class="cls-14" d="m1308.12,2182.89c-93.43-40.98-188.11-78.96-280.88-121.48-46.36-21.25-92.58-42.8-138.43-65.11-45.74-22.26-90.44-47.3-137.25-67.16-9.73-4.13,13,17.29,22.33,23.34,41.93,27.19,90.35,56,134.97,78.42,46.43,23.33,58.51,32.03,105.79,53.57,93.6,42.63,188.26,84.18,285.86,116.84,12.05,4.03,19.47-13.21,7.61-18.41h0Z"/>
  </g>
  <g>
    <path class="cls-15" d="m3008,1133.3c-12.86,10.96-25.13,22.56-37.05,34.53-1.81,1.76-3.6,3.55-5.38,5.34-.61.62-1.2,1.22-1.8,1.85,58.97,197.83,197.35,193.25,151.4,243.38-68.52,48.46-153.86-116.06-194.74-207.87-4.88,4.69-9.29,9.94-13.24,14.6-8.08,9.57-15.34,19.78-21.92,30.42-12.08,19.57-22.07,40.12-29.52,61.81-1.16.77-2.23,1.73-3.13,2.86-6.22,7.75-9.77,17.8-12.37,27.89,96.75,205.31,256.3,102.74,262.23,161.19-56.19,67.55-200.92-32.95-270.12-87.73,1.3,28.95,7.71,56.14,25.33,80.49,19.42,26.83,44.64,51.13,70.1,72.18,8.64,7.15,17.55,14.06,27.01,19.65,7.92,9.23,16.18,18,25.87,25.53,23.22,18.06,51.87,32.53,80.95,37.79,53.64,9.69,98.48-19.13,139.02-50.09.15.2.33.39.49.58-7.18,4.34-11.81,11.65-17.26,18.76-6.06,7.94-12.17,15.81-18.01,23.93-11.04,15.36-22.38,31.25-29.59,48.88-12.77,31.28-11.56,71.07,15.2,93.98.36,1.92.77,3.81,1.13,5.68,2.16,11.19,5.27,22.27,8.89,33.08,6.89,20.43,16.56,39.6,28.1,57.78,22.78,35.84,54.46,66.8,91.16,88.25,9.4,5.49,19.16,10.18,29.18,14.25.12.07.24.15.36.22,21.15,11.83,43.33,20.69,66.85,26.63,20.45,5.17,43.67,7.02,63.52-1.45,8.25-.26,16.48-.78,24.69-1.65,9.93-.88,19.81-2.42,29.51-4.64,1.87-.39,3.75-.76,5.63-1.19,11.63-2.67,23.14-5.96,34.39-9.93,26.22-6.85,51.43-18.03,74.94-32.51,12.05-7.43,23.52-15.68,34.39-24.62-158.26-5.76-406.02-51.28-349-285.81,61.12-88.2,67.51,249.87,403.71,230.23,14.64-18.07,27.89-37.28,39.91-57.06,24.92-21.88,38.03-51.75,46.65-83.4,1.92-.68,3.63-2.11,4.69-4.48,2.92-6.55,5.73-13.13,8.41-19.77-74.95-26.09-363.59,13.53-411.11-206.44-4.9-80.63,232.47,135.65,440.6,113.46,2.66-11.09,5.01-22.27,7.1-33.52,4.67-25.14,8.47-50.46,11.22-75.86,1.38-12.73,2.64-25.46,3.82-38.2,0-.05.01-.09,0-.15,10.5-40.82,15.25-82.58,17.25-124.74-85.97,7.76-340.2,26.53-349.1-21.48-9.89-53.3,280.32-18.3,350.29-71.89-.36-39.64-1.19-79.29.04-118.49-70.33,12.39-201.79,62.79-210.58,15.82-9.88-29.29,142.81-61.25,216.65-115.55.86-6.03,1.77-12.09,2.64-18.13,2.92-10.29,4.25-20.99,4.69-29.31.08-1.63.01-3.19-.16-4.68.26-3.38.28-6.72-.15-9.81,8.94-7.77,1.8-27.65-12.02-24.89-50.28,10.1-101.52,16.47-152.77,18.93-11.41,25.54-24.8,50.18-33.43,48.5-9.06-1.77-2.04-27.35,6.89-51.72-3.1.88-6.11,2.3-8.91,4.3-18.64.24-37.28-.02-55.87-.91-9.4-.46-18.8-1.13-28.18-1.89-1.88-1.42-4.17-2.53-6.89-3.07-7.76-1.58-15.86-2.03-23.99-1.96-11.88,63.17-42.42,188.34-98.3,190.26-45.64,1.57-25.83-100.84-3.44-180.92-24.22,3.06-48.36,7.83-72.29,13.09-13.61,1.14-27.18,2.87-40.67,4.88-5.32.79-10.62,1.64-15.91,2.54-22.69,11.73-38.68,26.79-49.67,43.84,1.34-.62,2.64-1.28,3.94-2.03,1.56-.33,3.11-.62,4.67-.95-2.89.96-5.75,1.98-8.61,3.01-58.85,91.34,25.84,239.72-8.88,239-42.87-.89-89.72-121.35-105.36-245.32-17.89,5.29-35.56,11.32-52.61,18.78-41.48,18.15-80.18,43.33-111.53,75.92Zm322.39,476.19,504.19-451.77c-.11,3.49-.18,6.99-.24,10.49-.41-.58-.83-1.13-1.28-1.68-.04-3.12-.07-6.25-.1-9.36.49-.9.98-1.78,1.47-2.66.01-.01.04,0,.05,0l.07-.24c.04-.08.08-.14.12-.22-.03,1.23-.04,2.45-.08,3.67Zm-482.18,66.15"/>
    <path class="cls-14" d="m3213.46,1595.06c50.19-100.54,114.66-180.21,190.32-262.84,79.7-87.04,169.61-165.29,267.14-231.79,25.56-17.43,51.58-34.21,78.4-49.64,13.06-7.51,26.27-14.73,39.66-21.64,13.09-6.76,26.46-12.9,38.39-21.58,3.25-2.36,1-8.34-3.12-7.47-25.51,5.4-49.52,19.73-72.35,31.92-24.74,13.22-48.97,27.41-72.68,42.38-50.05,31.6-97.4,67.27-142.52,105.55-91.11,77.3-174.72,164.95-244.27,262.23-35.95,50.29-63.65,101.81-90.76,157.4-3.51,7.21-1,12.24,2.56,5.13l9.23-9.65Z"/>
    <path class="cls-14" d="m3781.32,1472.12c-102.68,12.27-208.14,2.53-307.16-27.12-98.65-29.54-193.35-78.66-271.24-146.42-21.7-18.88-42.14-39.1-61.59-60.29-19.94-21.72-37.15-45.69-57.03-67.41-4.15-4.53-4.96,4.5-1.55,10.77,12.57,23.14,38.86,47.65,56.39,67.18,17.6,19.61,44.31,45.93,64.08,63.35,39.74,35.02,65.56,49.66,111.41,76.23,91.53,53.04,185.21,88.36,290.5,100.13,59.3,6.62,118.91,5.66,177.92-3.23,8.47-1.27,6.77-14.19-1.73-13.18h0Z"/>
    <path class="cls-14" d="m3670.81,1808.73c-61.53-10.62-120.4-34.66-171.33-70.84-56.19-39.91-102.08-92.64-138.87-150.63-24.71-38.95-44.42-80.52-63.35-122.5-3.62-8.03-15.69-3.04-12.63,5.2,27.55,74.22,69.63,145.51,122.29,204.72,44.31,49.83,98.33,84.61,159.65,111.3,32.88,14.31,63.3,23.58,98.82,28.39,8.13,1.1,13.43-4.26,5.42-5.64h0Z"/>
    <path class="cls-14" d="m3259.74,1497.01c-12.17-1.21-24.54-.67-36.76-1.67-12.25-1.01-24.43-2.81-36.47-5.29-24.35-5.01-48.02-12.72-70.87-22.5-50.81-21.75-96.42-53.62-139.01-88.5-25.78-21.11-50.65-43.33-75.6-65.41-7.27-6.43,1.58,10.26,8.59,16.73,82.28,75.82,152.78,148.73,264.24,176.01,13.64,3.34,27.56,5.67,41.54,7.05,14.35,1.42,22.98,4.29,37.22,1.49,8.8-1.73,16.88-16.93,7.13-17.9h0Z"/>
    <path class="cls-14" d="m3233.93,1536.1c-74.04,34.56-167.47,33.99-243.88,7.69-23.23-8-43.68-20.19-65.58-30.93-6.62-3.25-4.37,3.1.23,7.41,16.06,15.08,37.46,22.43,57.73,30.41,20.93,8.24,54.54,16.63,76.7,20.49,44.14,7.7,72.98,10.73,116.86,1.44,22.16-4.69,37.08-12.26,57.2-22.71,8.59-4.46,9.74-17.99.75-13.79h0Z"/>
    <path class="cls-14" d="m3217.61,1570.15c-9.98,42.64-8.84,87.23-.69,129.9,8.82,46.18,26.8,87.97,48.73,129.53,5.79,10.97,12.3,23.32,19.18,33.65,6.09,9.16,14.35,19.51,23.1,26.34,3.77,2.94,5.64.64,3.6-3.8-3.98-8.66-10.66-16.27-15.68-24.39-5.43-8.78-10.49-17.81-15.22-26.99-10.33-20.07-18.73-40.8-25.92-62.17-14.35-42.67-24.19-86.87-27.37-131.82-1.63-23.07-3.7-49.78-.21-72.65,1.44-9.42-9.53-7.31-11.61,1.59l2.1.81Z"/>
    <path class="cls-14" d="m3469.59,1251.4c5.81.51,10.77-2.09,16.17-3.99,6.05-2.13,12.14-4.15,18.27-6.07,11.62-3.65,23.36-6.86,35.17-9.84,24.43-6.17,49.19-10.87,74.21-13.91,24.77-3.01,49.76-4.52,74.72-4.28,12.36.12,24.71.68,37.05,1.51,6.41.43,12.82.72,19.22,1.22,5.99.47,12.21,1.79,18.15.69,6.36-1.18,4.32-5.57-1.45-8.33-10.28-4.91-24-5.4-35.25-6.25-12.78-.97-25.32-2.37-38.14-2.41-25.88-.09-50.67-.99-76.35,2.25-25.45,3.22-50.68,8.1-75.49,14.61-12.14,3.18-24.14,6.94-36.01,11-10.37,3.55-21.92,10.33-29.43,18.59-2.81,3.09-4.73,4.86-.83,5.21h0Z"/>
    <path class="cls-14" d="m3453.41,1277.64c-6.54-34.43-15.3-68.25-25.83-101.67-5.23-16.62-11.15-33.02-17.39-49.29-3.12-8.14-6.41-16.19-9.91-24.17-3.49-7.96-6.28-17.04-12.54-23.25-4.47-4.44-3.38,2.32-3.1,8.95.34,8.32,2.47,13.18,5.48,20.81,3,7.63,9.65,23.09,12.64,30.73,6.35,16.23,12.27,41.06,17.97,57.53,11.33,32.78,11.16,48.47,19.75,82.07,2.03,7.93,14.53,6.71,12.93-1.7h0Z"/>
    <path class="cls-14" d="m3615.05,1130.03c3.71-19.68,6.12-39.56,10.16-59.21,1.92-9.33-.28-17.52,1.97-26.77,2.22-9.13.75-20.41-.74-29.82-.99-6.21,1.93-8.2-1.97-3.93-6.19,6.78-7.73,14.76-10.1,23.43-2.71,9.93-5.36,23.19-7.37,33.29-3.97,19.95-7.54,40.65-7.79,61.02-.13,10.14,13.91,12.32,15.86,2h0Z"/>
  </g>
  <g>
    <g>
      <path class="cls-3" d="m4117.44,1689.48c-10.16-5.3-21.53-1.48-30.79,3.8-10.41,5.95-20.25,13.02-29.95,20.04-.31.23-.63.46-.95.69-24.84,14.8-48.81,31.05-71.27,49.28-29.44,23.9-57.08,50.08-82.57,78.15-17.34,18.07-33.46,37.29-47.6,57.95-9.03,11.75-18.35,24.25-21.76,38.57-1.5,6.29-1.4,13.14,1.25,19.04.66,1.48,1.48,2.89,2.48,4.22.05.06.09.12.15.18,5.01,6.58,13.15,9.47,21.25,8.93,7.69-.5,14.88-4.15,21.39-8,8.65-5.12,17.01-10.8,25.33-16.43,66.56-45.06,127.11-99.99,177.72-162.47,6.37-7.87,12.6-15.86,18.67-23.97,5.22-6.97,10.68-13.92,15.03-21.5,4.66-5.17,9.02-10.66,11.56-17.1,4.62-11.75,1.93-25.2-9.94-31.38Z"/>
      <path class="cls-3" d="m4099.97,1715.76s.04.07.06.1c0,0,0,0,0,0-.02-.03-.03-.06-.05-.09,0,0,0,0-.01,0Z"/>
    </g>
    <g>
      <path class="cls-3" d="m3803.89,1743.88c-7.77-5-17.19-2.78-25.02.77-8.8,4.01-17.23,8.96-25.55,13.88-.27.17-.54.33-.81.49-21.06,10.04-41.53,21.32-60.93,34.3-25.43,17.01-49.58,35.99-72.15,56.66-15.27,13.23-29.64,27.47-42.54,43.02-8.13,8.77-16.55,18.12-20.35,29.37-2.08,6.18-2.23,13.26,1.27,18.97.4.66.84,1.28,1.32,1.86,1.4,1.75,3.1,3.17,5.01,4.26,3.05,1.77,6.59,2.7,10.19,2.79,6.21.17,12.26-2.23,17.78-4.84,7.32-3.47,14.47-7.41,21.57-11.32,56.82-31.26,109.56-70.9,154.85-117.34,5.71-5.85,11.31-11.81,16.79-17.87,4.71-5.22,9.61-10.4,13.67-16.16,4.13-3.81,8.04-7.89,10.55-12.88,4.59-9.1,3.43-20.11-5.65-25.96Z"/>
      <path class="cls-3" d="m3787.9,1763.7s.02.06.04.09c0,0,0,0,0,0-.01-.03-.02-.05-.03-.08,0,0,0,0,0,0Z"/>
    </g>
    <g>
      <path class="cls-3" d="m3424.88,2643.37c-.13-.48-.26-.96-.4-1.44-2.01-7.4-4.16-14.77-6.45-22.1-11.98-38.46-27.71-75.88-46.65-111.57-2.03-3.85-4.11-7.67-6.22-11.47-6.83-12.29-14.04-24.36-21.61-36.18-1.41-2.22-2.84-4.42-4.28-6.62-1.98-3.01-3.98-6-6-8.98-4.56-6.7-9.13-13.46-14.09-19.87-3.73-4.83-8.03-9.71-13.65-12.39-5.41-2.57-11.7-3.02-17.12-.44-.56.26-1.11.56-1.64.89-1.4.86-2.64,1.89-3.73,3.05-3.36,3.58-5.29,8.41-6,13.28-1.51,10.29.81,20.88,3.59,31.08.4,1.45.8,2.9,1.21,4.33.15.67.31,1.35.46,2.02,2.34,10.07,5.18,20.02,8.42,29.83,1.27,3.84,2.6,7.67,3.99,11.47,1.75,4.8,3.6,9.58,5.53,14.32,10.73,28.65,23.65,56.53,38.58,83.22,6.95,12.41,14.54,24.44,22.62,36.13,2.14,3.1,4.32,6.18,6.53,9.23h59.02c-.68-2.6-1.41-5.2-2.11-7.79Z"/>
      <path class="cls-3" d="m3411.23,2675.9s.05-.04.07-.06c0,0,0,0,0,0-.02.02-.04.04-.06.05,0,0,0,0-.01,0Z"/>
    </g>
    <g>
      <path class="cls-3" d="m3561.77,2150.54c-3.94-.85-8-.52-12,.06-5.07-.34-10.19.05-15.25.32-5.88.32-11.76.75-17.62,1.29-34.45,3.18-68.67,10.32-101.68,20.96-11.58,3.74-23.02,7.9-34.26,12.48-5.4,2.21-10.85,4.42-16.12,6.94-3.96,1.91-8.05,4.2-10.78,7.76-2.51,3.28-3.78,7.43-2.99,11.49.11.6.27,1.2.48,1.8.42,1.2,1.02,2.31,1.76,3.31,2.01,2.79,5.05,4.8,8.29,6,8.02,2.98,17.07,2.51,25.67,1.94,9.35-.11,18.68-.8,27.95-1.96,5.16-.64,10.31-1.42,15.44-2.34,21.8-3.25,43.38-8.16,64.44-14.67,16.07-4.97,31.67-11.31,46.85-18.54.21-.08.42-.16.63-.24,6.53-2.42,13.13-4.89,19.37-8.01,5.54-2.76,11.06-7.03,11.78-13.65.85-7.74-4.79-13.38-11.96-14.94Z"/>
      <path class="cls-3" d="m3552.39,2179.13s-.02-.04-.02-.06c0,0,0,0,0,0,0,.02.02.04.02.06,0,0,0,0,0,0Z"/>
    </g>
    <path class="cls-15" d="m4229.92,2029.66c16.18-5,31.93-11.3,46.96-19.13,8.26-4.3,16.34-8.9,24.1-14.05,7.07-4.69,14.97-9.7,19.89-16.76,10.85-15.56,5.05-36.79-9.71-47.76-5.2-3.86-10.89-6.35-16.85-7.91-1.41-1.04-3.23-1.65-5.47-1.54-.55.03-1.1.06-1.66.09-9.81-1.45-20.09-.98-29.91-.4-23.94,1.41-47.78,4.39-71.34,8.89-46.6,5.3-92.99,12.38-139.18,20.75-40.71,7.38-81.22,15.8-121.52,25.17-10.94,2.54-22.92,4.86-32.69,10.42-1.53.1-3.06.27-4.58.53-5.34.92-9.64,3.81-11.37,9.16-.77,2.39-.84,5.3-.13,7.96-3.31,8.1-3.19,17.43,1.19,25.12,4.78,8.39,13.64,12.34,22.61,14.63,18.59,4.73,38.1,6.74,57.2,7.93,19.83,1.24,39.69,1.38,59.54.94,36.24-.8,72.61-2.12,108.73-5.25,35.17-3.05,70.4-8.36,104.19-18.8Z"/>
    <path class="cls-15" d="m3247.36,1830.77c8.48-9.63,17.72-18.56,27.8-26.52,5.53-4.37,11.22-8.53,17.19-12.29,5.44-3.43,11.35-7.33,17.75-8.54,14.12-2.67,26.99,7.93,29.99,21.54,1.06,4.79,1.01,9.5.24,14.1.28,1.3.14,2.75-.64,4.26-.19.37-.39.74-.58,1.12-2.05,7.23-5.56,14.19-9.01,20.8-8.41,16.11-17.87,31.66-28.29,46.54-18.13,30.56-37.42,60.42-57.55,89.74-17.74,25.84-36.13,51.22-55.12,76.17-5.15,6.77-10.48,14.33-17.35,19.35-.55,1.03-1.14,2.03-1.79,3-2.29,3.4-5.62,5.48-9.86,5.01-1.89-.21-3.92-1.06-5.54-2.38-6.62-.22-13.04-3.21-16.99-8.62-4.32-5.9-4.3-13.26-3.09-20.16,2.5-14.31,7.17-28.42,12.28-41.99,5.3-14.09,11.37-27.86,17.84-41.44,11.8-24.8,24.01-49.52,37.39-73.51,13.03-23.36,27.63-46.06,45.34-66.17Z"/>
    <path class="cls-15" d="m3886.96,2310.46c12,4.08,24.31,7.18,36.86,9.05,6.89,1.02,13.81,1.79,20.77,2.08,6.34.26,13.33.7,19.41-1.41,13.41-4.66,19.23-20.07,15.11-33.2-1.45-4.62-3.81-8.63-6.73-12.2-.4-1.25-1.23-2.42-2.64-3.34-.35-.23-.7-.45-1.04-.67-5.31-5.19-11.74-9.42-17.95-13.39-15.12-9.67-30.88-18.34-47.13-25.96-30.56-17.27-61.78-33.36-93.44-48.58-27.91-13.42-56.15-26.12-84.68-38.15-7.75-3.27-16.02-7.13-24.38-8.05-.97-.61-1.97-1.18-3.01-1.69-3.64-1.79-7.51-1.93-10.92.55-1.52,1.11-2.84,2.84-3.58,4.76-5.56,3.45-9.59,9.16-10.32,15.74-.79,7.18,2.84,13.47,7.27,18.8,9.18,11.03,20.12,20.82,31.17,29.94,11.47,9.46,23.44,18.27,35.66,26.73,22.31,15.44,44.92,30.62,68.18,44.6,22.65,13.61,46.32,25.87,71.39,34.39Z"/>
    <path class="cls-15" d="m3509.02,1749.79c4.85-8.73,10.4-17.06,16.73-24.78,3.48-4.24,7.12-8.35,11.03-12.2,3.56-3.51,7.41-7.46,12.08-9.45,10.3-4.37,21.84,1.55,26.38,11.4,1.6,3.47,2.34,7.06,2.52,10.69.43.94.56,2.07.22,3.34-.08.32-.17.63-.25.94-.35,5.84-1.87,11.71-3.4,17.31-3.72,13.65-8.33,27.04-13.78,40.09-8.71,26.25-18.42,52.16-28.86,77.8-9.2,22.6-18.97,44.95-29.26,67.07-2.79,6.01-5.59,12.64-9.98,17.6-.24.87-.53,1.73-.86,2.58-1.18,2.97-3.37,5.1-6.67,5.45-1.47.16-3.16-.16-4.61-.89-5.07.93-10.45-.27-14.35-3.73-4.26-3.77-5.47-9.37-5.7-14.82-.48-11.3.73-22.8,2.36-33.97,1.69-11.59,4.02-23.07,6.68-34.48,4.86-20.82,10.03-41.65,16.22-62.11,6.03-19.93,13.36-39.61,23.49-57.85Z"/>
    <path class="cls-14" d="m4116.56,2316.13c13.44,5.5,27.24,9.3,41.73,10.58,13.31,1.17,28.39.16,39.78-7.53,12.14-8.19,18.29-22.33,17.86-36.8-.27-8.95-2.89-17.24-6.98-24.86.08-.03.15-.07.23-.1-12.67-12.97-25.35-25.93-38.02-38.9-.59-.6-1.07-1.23-1.47-1.87-.87-.68-1.74-1.36-2.61-2.03-12.8-9.93-26.03-19.23-39.74-27.86-27.02-17-55.53-31.5-84.63-44.56-29.33-13.16-59.23-25.1-89.45-36.06-29.84-10.82-60.52-19.26-91.33-26.85-5.88-1.45-11.78-2.85-17.68-4.22-2.31-1.38-4.61-2.76-6.91-4.17-9.97-6.12-19.23,7.43-12.1,15.64,10.19,11.72,20.96,22.98,31.77,34.12,10.82,11.16,21.21,22.73,32.2,33.74,22.12,22.15,46.12,42.65,70.57,62.17,24.65,19.68,50.44,37.97,76.97,55.04,25.49,16.4,51.68,33,79.81,44.51Z"/>
    <path class="cls-14" d="m3750.62,2507.42c13.96,3.99,28.09,6.25,42.64,5.92,13.36-.3,28.23-2.96,38.71-11.86,11.16-9.48,15.72-24.21,13.7-38.54-1.25-8.87-4.77-16.82-9.67-23.94.07-.04.14-.09.22-.13-14.02-11.49-28.05-22.99-42.07-34.48-.65-.54-1.2-1.11-1.66-1.7-.94-.58-1.88-1.16-2.81-1.73-13.81-8.46-27.99-16.25-42.56-23.32-28.72-13.92-58.66-25.21-89.02-34.98-30.6-9.85-61.63-18.43-92.87-26-30.85-7.47-62.27-12.48-93.73-16.64-6.01-.79-12.02-1.53-18.04-2.25-2.44-1.12-4.89-2.24-7.32-3.39-10.58-4.99-18.3,9.5-10.3,16.87,11.42,10.53,23.36,20.53,35.33,30.42,11.99,9.9,23.58,20.26,35.72,30,24.42,19.58,50.53,37.32,76.98,54.03,26.67,16.85,54.31,32.19,82.55,46.24,27.14,13.5,54.99,27.11,84.22,35.46Z"/>
    <path class="cls-14" d="m4211.24,1964.41c-93.18,10.22-185.9,25.24-278.15,41.77-106.73,19.12-213.04,40.78-318.84,64.5-110.76,24.83-220.9,52.32-330.24,82.79-105.24,29.32-209.78,61.28-312.97,97.17-90.48,31.48-180.31,65.74-267.16,106.28-9.55,4.46-18.94,9.21-28.42,13.81-4.74,2.31-.67,9.39,4.04,7.1,84.45-41.08,172.26-75.55,260.61-107.21,101.31-36.31,204.07-68.5,307.49-98.22,108.49-31.18,217.83-59.49,327.62-85.68,106.04-25.29,212.62-48.29,319.79-68.3,94.55-17.65,189.48-33.09,284.85-45.62,10.47-1.38,20.93-2.79,31.4-4.12,2.68-.34,2.74-4.58-.02-4.28h0Z"/>
    <path class="cls-14" d="m2945.54,2267.62c46.04-11.57,94.26-13.83,141.56-13.08,57.37.91,114.61,7.06,171.2,16.31,60.4,9.88,120.22,23.34,179.15,39.81,57.33,16.02,113.94,34.85,169.09,57.28,47.84,19.45,93.42,42.6,138.44,67.78,4.83,2.7,9.6,5.49,14.33,8.35,2.35,1.42,4.26-2.09,2.1-3.63-41.14-29.43-87.22-51.44-133.64-71.22-54.48-23.21-110.51-42.75-167.33-59.38-59.27-17.35-119.49-31.62-180.31-42.37-57.37-10.14-115.5-17.4-173.76-19.32-49.14-1.62-98.76.39-146.96,10.74-5.1,1.1-10.18,2.3-15.24,3.62-3.31.86-1.95,5.96,1.37,5.12h0Z"/>
    <path class="cls-14" d="m3027.19,2237.4c16.7-11.69,31.14-25.89,44.7-41.04,17.72-19.8,34.08-40.82,49.67-62.32,33.45-46.15,63.98-94.75,90.43-145.25,11.68-22.3,23.71-45.65,30.92-69.85.83-2.77-3.66-4.76-4.82-1.98-18.96,45.42-41.71,88.67-67.26,130.75-28.87,47.55-60.38,94.11-96.56,136.45-14.9,17.44-30.82,35.58-49.37,49.25-2.35,1.73-.17,5.72,2.28,4.01h0Z"/>
    <path class="cls-14" d="m3490.26,1913.18c-31.68,72.87-81.26,138.79-138.97,193.09-15.95,15.01-33.23,28.28-49.82,42.52-2.14,1.83.6,5.43,2.98,3.94,16.28-10.25,30.96-23.43,45.06-36.44,14.85-13.7,28.98-28.19,42.41-43.29,27.08-30.45,51.39-63.39,72.08-98.5,11.24-19.07,21.27-38.83,29.87-59.23,1.02-2.42-2.53-4.55-3.6-2.08h0Z"/>
    <path class="cls-14" d="m3418.45,2044.38c15.5-8.39,30.28-18.26,45.03-27.88,23.54-15.36,46.77-31.17,69.8-47.28,49.04-34.3,98.15-69.46,143.21-108.94,13.83-12.12,30.46-25.2,38.37-42.28,1.08-2.34-2.4-4.38-3.49-2.02-2.61,5.64-7.8,10.33-11.98,14.79-6.7,7.15-13.94,13.8-21.29,20.27-20.49,18.05-42.07,34.87-63.81,51.39-47.86,36.37-97.12,71.05-147.1,104.45-16.85,11.26-33.73,22.85-51.49,32.64-3.16,1.74-.4,6.57,2.77,4.86h0Z"/>
    <path class="cls-14" d="m3530.04,2097.05c22.28,2.61,44.07,10.96,64.79,19.16,28.75,11.38,56.7,24.78,84.28,38.73,58.35,29.52,115.17,62,171.42,95.33,22.76,13.48,45.07,28.22,68.71,40.08,2.55,1.28,4.42-2.13,2.18-3.78-18.75-13.76-39.21-25.21-59.14-37.17-26.79-16.08-53.82-31.76-81.03-47.11-57.27-32.32-115.53-63.9-176.48-88.81-23.84-9.74-48.94-19.33-74.76-21.91-3.52-.35-3.42,5.07.02,5.47h0Z"/>
    <path class="cls-14" d="m3715.71,2052.43c7.97.06,16.09,1.98,23.82,3.72,12.2,2.75,24.26,6,36.23,9.64,32.9,10,65.21,22.09,97.07,35,76.76,31.12,152.5,67.73,221.54,113.71,32.58,21.7,62.56,46.17,89.34,74.75,1.63,1.74,4.87-.56,3.42-2.58-19.88-27.7-48.87-49.12-76.56-68.46-34.17-23.87-70.42-44.73-107.4-63.9-37.67-19.53-76.26-37.31-115.47-53.53-33.23-13.75-66.92-26.5-101.29-37.13-21.1-6.53-43.75-14.21-66.06-14.59-1.55-.03-3.11-.02-4.66.08-2.1.13-2.13,3.28.01,3.3h0Z"/>
    <path class="cls-14" d="m4109.08,1714.32c-2.86,6.46-8.75,11.98-13.5,17.03-9.28,9.86-19.1,19.22-28.99,28.47-29.25,27.35-59.58,53.57-90.05,79.55-35.81,30.54-72.04,60.58-108.61,90.19-32.49,26.3-65.18,52.37-98.52,77.58-19.21,14.52-38.43,29.61-59.31,41.71-.84.49-2.41,1.38-2.82,1.53-2.46.88-1.42,4.82,1.05,3.94,7.1-2.53,13.31-6.6,19.56-10.77,11.45-7.64,22.58-15.77,33.63-23.97,32.4-24.05,63.96-49.27,95.34-74.62,36.87-29.79,73.35-60.08,109.43-90.82,31.99-27.25,63.71-54.83,94.53-83.38,10.92-10.11,21.75-20.34,32.14-31.01,6.23-6.39,12.86-12.96,17.74-20.49.63-.97,1.22-1.96,1.69-3.02.98-2.23-2.31-4.17-3.31-1.92h0Z"/>
    <path class="cls-14" d="m3405.03,2651.16h-6.3c-.92-3.09-1.87-6.16-2.85-9.23-7.98-25.23-17.69-49.82-28.72-73.95-9.24-20.21-19.17-40.11-29.68-59.72-2.05-3.84-4.12-7.66-6.22-11.47-6.17-11.2-12.51-22.31-19.03-33.32-.55-.95-1.12-1.91-1.69-2.86-8.89-14.96-18.08-29.75-27.5-44.36-6.23-9.64-12.55-19.2-18.97-28.69-.98-1.45-1.96-2.9-2.94-4.34-17.73-26.07-36.25-51.66-56.06-76.2-13.61-16.86-27.78-33.81-43.74-48.54-.47-.45-.94-.88-1.41-1.31-2.47-2.26,1.17-5.7,3.67-3.61,2.22,1.86,4.4,3.77,6.55,5.73,17.25,15.67,32.17,33.97,46.59,52.18,19.46,24.57,37.92,50.01,55.44,76.09,5.5,8.18,10.92,16.44,16.24,24.75,10.19,15.91,20.05,32.03,29.6,48.3.23.4.47.79.69,1.18,4.01,6.83,7.96,13.69,11.85,20.57,2.71,4.79,5.39,9.6,8.04,14.43,2.1,3.81,4.18,7.64,6.23,11.47,12.07,22.52,23.42,45.43,33.66,68.82,9.17,20.96,18.02,42.62,24.16,64.85.85,3.06,1.65,6.14,2.39,9.23Z"/>
    <path class="cls-14" d="m3444.44,2187.12c-58.42,13.98-116.64,30-172.81,51.44-15.93,6.08-32.13,12.18-47.29,20.02-1.88.97-.62,4.21,1.43,3.48,14.2-5.1,28.08-11.16,42.2-16.49,13.87-5.24,27.86-10.19,41.91-14.9,28.31-9.49,56.95-17.96,85.77-25.75,16.64-4.5,33.34-8.79,50.04-13.1,3.03-.78,1.78-5.42-1.25-4.69h0Z"/>
  </g>
  <g>
    <g>
      <path class="cls-3" d="m1770.93,734.49c1.3,9.96,2.6,19.99,4.51,29.85,1.44,7.42,3.47,15.23,8.2,21.32,5.01,6.47,12.66,10.67,21.02,9.97,8.27-.69,15.24-6.03,19.88-12.65,8.46-12.04,11.63-27.31,14.43-41.86,6.08-24.29,9.78-49.09,11.8-74.06,4.1-37.69,5.36-75.75,3.72-113.62-1.25-28.9-4.99-57.62-10.4-86.03-.04-.39-.08-.78-.11-1.17-1.18-11.92-2.41-23.97-4.87-35.71-2.18-10.43-6.87-21.47-17.57-25.57-12.5-4.78-24.35,2.13-30.07,13.38-3.14,6.17-4.36,13.07-5.14,19.99-2.78,8.28-4.37,16.97-6.12,25.51-2.04,9.92-3.89,19.88-5.55,29.87-13.19,79.31-14.13,161.06-3.7,240.76Z"/>
      <path class="cls-3" d="m1813.44,435.48s-.07.02-.11.03c0,0,0,0,0,0,.03,0,.07-.02.1-.02,0,0,0,0,.01,0Z"/>
    </g>
    <g>
      <path class="cls-3" d="m1972.6,944.22c1.79,7.91,3.57,15.87,5.84,23.65,1.7,5.86,3.92,11.98,8.17,16.52,4.51,4.82,10.97,7.63,17.63,6.45,6.6-1.17,11.8-5.98,15.03-11.64,5.9-10.31,7.31-22.81,8.48-34.71,3.08-19.97,4.21-40.17,3.98-60.38.5-30.59-1.32-61.26-5.45-91.57-3.15-23.13-8.29-45.93-14.74-68.35-.06-.31-.12-.62-.18-.93-1.83-9.49-3.72-19.08-6.56-28.33-2.53-8.22-7.12-16.74-16.02-19.24-10.4-2.92-19.41,3.52-23.17,12.99-2.06,5.19-2.53,10.83-2.64,16.45-1.62,6.86-2.25,13.96-3.02,20.95-.9,8.12-1.65,16.26-2.24,24.41-4.71,64.7.61,130.46,14.9,193.72Z"/>
      <path class="cls-3" d="m1984.55,700.82s-.06.02-.09.03c0,0,0,0,0,0,.03,0,.05-.02.08-.03,0,0,0,0,0,0Z"/>
    </g>
    <g>
      <path class="cls-3" d="m1589.18,1545.48c-7.45,3.36-14.84,6.85-22.16,10.49-6.3,3.13-12.75,6.16-18.64,10.03-5.24,2.04-10.37,4.41-14.54,8.13-7.6,6.78-10.55,17.46-4.24,26.22,5.4,7.5,14.98,8.89,23.57,8.44,9.66-.5,19.32-2.03,28.86-3.57.31-.05.62-.1.93-.15,23.27-1.64,46.45-4.64,69.26-9.62,29.89-6.53,59.31-15.35,87.87-26.32,19.06-6.73,37.65-14.72,55.34-24.47,10.78-5.18,22.03-10.81,29.68-19.89,4.2-4.99,6.93-11.52,5.77-18.12-1.18-6.66-6.03-11.76-12.11-14.34-5.72-2.43-12.24-2.41-18.32-2-8.09.55-16.18,1.6-24.22,2.64-64.32,8.3-127.9,25.88-187.05,52.52Z"/>
      <path class="cls-3" d="m1551.74,1587.76s0-.06,0-.09c0,0,0,0,0,0,0,.03,0,.06,0,.08,0,0,0,0,0,0Z"/>
    </g>
    <g>
      <path class="cls-3" d="m1873.56,1161.33c-3.49-4.75-7.06-9.43-10.72-14.04-3.15-3.97-6.26-8.06-9.87-11.62-2.22-3.39-4.66-6.64-7.91-9.02-5.92-4.33-13.89-4.81-19.11.95-4.48,4.93-4.01,11.89-2.4,17.88,1.81,6.73,4.33,13.31,6.85,19.8.08.21.17.42.25.64,4.65,16.15,10.26,32.03,17.19,47.35,9.09,20.08,19.74,39.49,31.76,57.96,7.61,12.42,16.03,24.32,25.57,35.32,5.27,6.81,10.93,13.9,18.48,17.93,4.15,2.21,9.16,3.15,13.63,1.34,4.52-1.83,7.38-6.02,8.28-10.69.85-4.4-.14-8.98-1.35-13.21-1.6-5.62-3.56-11.16-5.5-16.67-15.52-44.08-37.47-86.24-65.14-123.91Z"/>
      <path class="cls-3" d="m1829.88,1152.62s.04-.02.06-.02c0,0,0,0,0,0-.02,0-.04.01-.06.02,0,0,0,0,0,0Z"/>
    </g>
    <path class="cls-15" d="m1492.34,546.45c-6.99-15.43-12.72-31.39-16.84-47.83-2.26-9.03-4.18-18.13-5.47-27.35-1.18-8.4-2.67-17.64-.65-26,4.45-18.44,24.18-28.18,42.18-24.41,6.34,1.33,11.98,3.94,17.1,7.36,1.71.36,3.38,1.33,4.78,3.08.35.43.68.87,1.03,1.3,7.59,6.38,14.06,14.39,20.14,22.12,14.83,18.85,28.41,38.67,40.67,59.28,26.94,38.39,52.42,77.8,76.78,117.92,21.48,35.36,42.04,71.26,61.77,107.63,5.35,9.87,11.57,20.38,13.88,31.38.94,1.21,1.83,2.47,2.64,3.79,2.85,4.61,3.54,9.74.69,14.59-1.28,2.17-3.41,4.14-5.87,5.38-3.86,7.85-10.93,13.95-19.59,15.78-9.45,1.99-18.29-2.02-25.94-7.22-15.87-10.77-30.31-24.04-43.87-37.55-14.08-14.02-27.35-28.79-40.2-43.94-23.44-27.65-46.58-55.75-68.19-84.86-21.04-28.34-40.44-58.23-55.04-90.45Z"/>
    <path class="cls-15" d="m2292.9,1149.83c1.58-12.74,2.13-25.57,1.41-38.39-.4-7.04-1.06-14.05-2.2-21.02-1.04-6.34-2.04-13.36-5.38-18.95-7.37-12.34-23.84-14.94-36.01-8.16-4.29,2.39-7.78,5.55-10.71,9.18-1.16.65-2.15,1.72-2.76,3.3-.15.39-.3.78-.45,1.17-4.06,6.33-6.93,13.57-9.59,20.54-6.48,16.98-11.84,34.37-16.07,52.04-10.84,33.83-20.39,68.08-28.99,102.59-7.57,30.42-14.37,61.02-20.44,91.77-1.65,8.35-3.78,17.35-2.97,25.82-.41,1.09-.76,2.2-1.06,3.33-1.03,3.98-.37,7.84,2.79,10.71,1.41,1.28,3.4,2.23,5.46,2.57,4.56,4.81,11.05,7.63,17.72,7,7.28-.69,12.77-5.58,17.14-11.06,9.05-11.37,16.51-24.22,23.28-37.04,7.03-13.31,13.3-26.98,19.18-40.84,10.73-25.28,21.14-50.81,30.22-76.74,8.84-25.24,16.14-51.23,19.45-77.82Z"/>
    <path class="cls-15" d="m1509.68,989.35c-11.02-6.28-21.5-13.43-31.22-21.58-5.34-4.48-10.5-9.15-15.33-14.17-4.4-4.57-9.37-9.51-11.82-15.46-5.41-13.13,2.27-27.7,14.83-33.33,4.42-1.98,8.99-2.88,13.6-3.05,1.2-.53,2.63-.68,4.25-.24.4.11.8.23,1.19.34,7.41.53,14.84,2.54,21.92,4.55,17.27,4.91,34.2,10.95,50.69,18.05,33.19,11.42,65.94,24.1,98.34,37.7,28.55,11.99,56.79,24.7,84.72,38.07,7.58,3.63,15.96,7.26,22.2,12.91,1.1.32,2.19.69,3.26,1.13,3.75,1.54,6.43,4.34,6.83,8.54.18,1.87-.24,4.01-1.19,5.84,1.11,6.45-.49,13.26-4.94,18.17-4.85,5.36-11.97,6.81-18.89,7.03-14.35.45-28.93-1.25-43.08-3.47-14.69-2.31-29.22-5.42-43.66-8.96-26.35-6.45-52.72-13.31-78.6-21.45-25.2-7.92-50.09-17.51-73.09-30.61Z"/>
    <path class="cls-15" d="m2179.95,900.3c3.32-9.42,5.87-19.09,7.45-28.96.87-5.42,1.53-10.86,1.82-16.35.26-5,.67-10.5-.94-15.31-3.56-10.61-15.65-15.32-26.03-12.19-3.66,1.1-6.83,2.93-9.67,5.2-.99.3-1.92.95-2.65,2.05-.18.27-.36.55-.54.82-4.13,4.14-7.52,9.17-10.7,14.02-7.75,11.83-14.71,24.17-20.86,36.9-13.87,23.93-26.82,48.38-39.08,73.2-10.81,21.87-21.06,44.01-30.79,66.39-2.64,6.07-5.75,12.56-6.55,19.14-.49.76-.95,1.54-1.36,2.36-1.44,2.85-1.58,5.9.34,8.61.86,1.21,2.21,2.26,3.72,2.86,2.67,4.41,7.13,7.64,12.31,8.27,5.65.69,10.64-2.12,14.87-5.56,8.77-7.14,16.58-15.67,23.86-24.3,7.55-8.95,14.6-18.31,21.37-27.87,12.36-17.44,24.52-35.13,35.73-53.34,10.91-17.73,20.78-36.27,27.71-55.95Z"/>
    <path class="cls-14" d="m1353.14,821.29c-13.03-6.41-25.03-14.21-35.6-24.22-9.71-9.18-18.95-21.13-20.75-34.76-1.92-14.52,4.58-28.5,15.69-37.77,6.88-5.74,14.82-9.27,23.23-11.26-.03-.08-.05-.16-.07-.24,18.11.88,36.22,1.77,54.33,2.65.84.04,1.63-.01,2.37-.14,1.08.2,2.17.4,3.25.61,15.92,2.99,31.66,6.73,47.21,11.26,30.64,8.94,60.41,20.66,89.49,33.78,29.3,13.22,58.07,27.68,86.31,43.02,27.89,15.16,54.55,32.52,80.67,50.54,4.99,3.44,9.94,6.93,14.89,10.44,2.57.81,5.13,1.62,7.7,2.4,11.19,3.4,7.2,19.32-3.68,19.43-15.53.15-31.1-.45-46.61-1.14-15.53-.7-31.08-.79-46.61-1.72-31.24-1.86-62.51-6.22-93.33-11.58-31.08-5.4-61.87-12.57-92.24-21.09-29.18-8.19-58.97-16.79-86.25-30.2Z"/>
    <path class="cls-14" d="m1452.72,1222.02c-12.24-7.8-23.31-16.88-32.72-27.98-8.64-10.19-16.51-23.09-16.8-36.84-.31-14.64,7.69-27.82,19.75-35.81,7.47-4.95,15.75-7.59,24.33-8.64-.02-.08-.03-.16-.05-.25,17.9,2.87,35.8,5.74,53.71,8.61.83.13,1.62.17,2.37.12,1.05.32,2.11.64,3.16.96,15.49,4.73,30.73,10.17,45.68,16.39,29.47,12.26,57.77,27.18,85.23,43.42,27.67,16.36,54.68,33.9,81.06,52.26,26.05,18.13,50.65,38.32,74.62,59.1,4.58,3.97,9.12,7.98,13.65,12.01,2.46,1.09,4.92,2.17,7.39,3.23,10.75,4.61,5.03,20-5.8,18.9-15.45-1.56-30.86-3.86-46.2-6.26-15.36-2.4-30.8-4.21-46.14-6.84-30.85-5.29-61.44-13.06-91.49-21.77-30.3-8.78-60.11-19.3-89.36-31.11-28.1-11.35-56.77-23.17-82.4-39.5Z"/>
    <path class="cls-14" d="m1553.55,517.14c54.16,76.51,104.41,155.86,153.23,235.86,56.48,92.56,110.78,186.48,163.21,281.39,54.88,99.36,107.36,200.01,157.09,302.05,47.86,98.2,93.29,197.63,134.87,298.67,36.46,88.6,70.4,178.54,97.67,270.43,3,10.1,5.68,20.28,8.51,30.43,1.42,5.08-6.59,6.73-8,1.69-25.28-90.45-57.72-179.02-92.63-266.14-40.03-99.9-84.09-198.16-130.45-295.26-48.63-101.87-99.96-202.47-153.19-302.01-51.41-96.13-104.89-191.15-161-284.62-49.5-82.47-100.91-163.75-154.79-243.43-5.91-8.74-11.79-17.51-17.75-26.23-1.52-2.23,1.61-5.09,3.22-2.83h0Z"/>
    <path class="cls-14" d="m2166.17,1665.46c-21.88-42.13-52.17-79.71-84.1-114.61-38.73-42.33-81.3-81.09-125.76-117.3-47.45-38.65-97.2-74.49-148.62-107.67-50.01-32.27-101.66-62.15-155.02-88.55-46.28-22.9-93.85-41.66-142.55-58.64-5.22-1.82-10.47-3.54-15.75-5.18-2.62-.82-1.26-4.57,1.32-3.98,49.31,11.27,96.35,31.15,141.94,52.77,53.51,25.37,105.29,54.35,155.43,85.83,52.3,32.85,102.92,68.45,151.31,106.84,45.64,36.21,89.63,74.89,129.72,117.22,33.8,35.7,65.22,74.17,89.44,117.1,2.57,4.55,5.03,9.15,7.4,13.8,1.55,3.05-3.17,5.41-4.74,2.38h0Z"/>
    <path class="cls-14" d="m2134.63,1584.31c-2.33-20.25-1.28-40.48,1.07-60.68,3.06-26.39,7.94-52.58,13.69-78.51,12.35-55.65,28.47-110.72,48.72-164.02,8.94-23.53,18.43-48.02,31.76-69.47,1.53-2.46,6-.42,4.68,2.3-21.42,44.31-38.69,90.03-53.23,137.05-16.43,53.14-30.38,107.61-38.06,162.77-3.17,22.71-6.18,46.66-4.11,69.61.26,2.9-4.17,3.92-4.51.95h0Z"/>
    <path class="cls-14" d="m2070.11,1022.72c-33.52,72.05-49.96,152.87-52.32,232.07-.65,21.9.87,43.63,1.23,65.49.05,2.82-4.46,3.16-4.92.38-3.13-18.98-3-38.71-2.61-57.89.4-20.21,1.88-40.39,4.27-60.45,4.83-40.46,13.35-80.5,25.91-119.28,6.82-21.06,14.95-41.67,24.51-61.64,1.14-2.37,5.08-1.12,3.94,1.31h0Z"/>
    <path class="cls-14" d="m2019.56,1163.47c-4-17.17-6.42-34.77-9-52.19-4.12-27.8-7.7-55.68-10.91-83.6-6.86-59.45-13.12-119.53-13.47-179.43-.11-18.39-1.34-39.51,6.19-56.76,1.03-2.36,4.87-1.11,3.83,1.27-2.49,5.7-2.55,12.69-3.12,18.78-.91,9.76-1.08,19.59-1.05,29.38.08,27.31,1.81,54.62,3.86,81.84,4.53,59.95,11.25,119.81,19.41,179.36,2.75,20.08,5.27,40.39,9.73,60.18.79,3.52-4.66,4.66-5.47,1.15h0Z"/>
    <path class="cls-14" d="m1906.12,1114.9c-16.73-14.95-37.44-25.71-57.31-35.77-27.59-13.96-56.16-26-84.89-37.39-60.79-24.09-122.8-45.07-185.04-65.05-25.18-8.09-51.01-15.01-75.57-24.83-2.65-1.06-1.34-4.72,1.38-4.14,22.73,4.9,44.88,12.62,67.04,19.6,29.8,9.38,59.47,19.21,89.01,29.39,62.17,21.42,124.45,44.08,183.52,73.16,23.1,11.38,46.93,23.8,65.98,41.42,2.6,2.4-1.52,5.92-4.11,3.61h0Z"/>
    <path class="cls-14" d="m1816.37,946.36c-5.33-5.92-12.15-10.73-18.58-15.36-10.15-7.31-20.58-14.18-31.24-20.72-29.31-17.99-59.78-34.15-90.58-49.43-74.2-36.8-151.84-69.2-232.04-90.37-37.85-9.99-76.05-16.2-115.2-17.28-2.39-.07-2.81-4.02-.33-4.27,33.91-3.49,69.17,3.99,102.01,11.89,40.53,9.74,80.18,23.03,119.06,37.99,39.6,15.24,78.5,32.32,116.65,50.9,32.33,15.75,64.22,32.51,94.98,51.17,18.88,11.46,39.66,23.32,54.74,39.76,1.05,1.15,2.07,2.32,3.03,3.54,1.3,1.66-1.04,3.77-2.48,2.18h0Z"/>
    <path class="cls-14" d="m1808.48,427.72c-2.94,6.43-3.16,14.5-3.79,21.4-1.23,13.49-1.72,27.04-2.08,40.57-1.07,40.03-.57,80.12.2,120.15.9,47.05,2.45,94.09,4.55,141.1,1.86,41.76,4.04,83.51,7.29,125.19,1.87,24.01,3.33,48.4,8.12,72.05.19.95.57,2.72.73,3.12.97,2.42-2.66,4.26-3.64,1.82-2.81-6.99-3.89-14.34-4.92-21.78-1.88-13.64-3.17-27.35-4.37-41.06-3.5-40.2-5.55-80.54-7.4-120.85-2.17-47.35-3.69-94.74-4.62-142.13-.82-42.01-1.23-84.04-.3-126.05.33-14.88.8-29.77,1.89-44.62.65-8.9,1.17-18.22,3.57-26.87.31-1.11.65-2.21,1.14-3.26,1.02-2.21,4.66-1.04,3.63,1.21h0Z"/>
    <path class="cls-14" d="m2031.79,1498.09c-22.23-2.39-44.97-1.75-67.26-.72-31.5,1.45-62.94,4.56-94.21,8.58-70.37,9.05-140.68,22.48-208.59,43.21-32.87,10.04-64.84,22.25-95.65,37.51-3.05,1.51-5.19-2.96-2.34-4.67,25.88-15.55,55.03-26.03,83.66-35.28,33.68-10.88,68.07-19.57,102.67-26.96,66.87-14.28,135.08-24.39,203.39-28.18,26.07-1.44,52.66-2.5,78.58,1.36,3.22.48,3.06,5.49-.27,5.13h0Z"/>
    <path class="cls-14" d="m1895.5,1238.71c28.29,52.99,54.92,107.19,76.12,163.44,6.01,15.95,12.2,32.12,16.38,48.67.52,2.05-2.74,3.26-3.55,1.24-5.6-14.01-10.27-28.41-15.65-42.52-5.28-13.86-10.85-27.61-16.65-41.25-11.68-27.48-24.33-54.53-37.62-81.27-7.67-15.44-15.53-30.79-23.38-46.14-1.43-2.79,2.87-4.93,4.34-2.17h0Z"/>
  </g>
  <rect class="cls-6" x="38.75" y="2496.79" width="4382.47" height="154.37"/>
  <path class="cls-3" d="m1376.25,1063.19h1905.58c73.62,0,133.39,59.77,133.39,133.39v1136.99c0,73.62-59.77,133.39-133.39,133.39h-1905.58c-73.62,0-133.39-59.77-133.39-133.39v-1136.99c0-73.62,59.77-133.39,133.39-133.39Z"/>
  <path class="cls-15" d="m3663.07,2387.57c-2.09,26.14-9.39,50.42-21.3,73.05-8.82,16.76-20.16,32.61-33.8,47.64H1050.36c-16.69-14.48-29.96-30.29-39.31-47.64-11.76-21.8-17.34-46.02-15.79-73.05h2667.81Z"/>
  <path class="cls-15" d="m1365.54,1165.02h1926.99c36.16,0,65.52,29.36,65.52,65.52v926.56c0,36.16-29.36,65.52-65.52,65.52h-1926.99c-36.16,0-65.52-29.36-65.52-65.52v-926.56c0-36.16,29.36-65.52,65.52-65.52Z"/>
  <path class="cls-14" d="m2664.93,1665.57v457.26c0,36.9-11.09,71.21-30.12,99.78h-575.62c-19.02-28.57-30.12-62.88-30.12-99.78v-457.26c0-92.17,69.19-168.19,158.48-178.92,5.7-.68,11.48-1.1,17.33-1.24,1.47-.04,2.95-.05,4.42-.05h275.4c3.34,0,6.64.09,9.93.27,94.92,5.15,170.29,83.74,170.29,179.95Z"/>
  <polygon class="cls-8" points="2517.65 1753.04 2514.59 1835.84 2169.62 1835.84 2168.09 1740.78 2237.62 1720.43 2251.9 1716.25 2423.62 1716.25 2440.65 1722.91 2517.65 1753.04"/>
  <path class="cls-13" d="m2710.36,2222.61h-766.64c-4.68-4.7-6.33-12.21-2.73-18.81,26.81-49.24,64.55-383.4,81.17-404.76,1.7-2.18,4.04-4.38,6.92-6.58,31.47-24.03,126.96-48.36,139.02-51.37.82-.2,1.26-.31,1.26-.31l16.61,33.23,13.7,27.39,6.48,12.98,52.34,3.17,150.05,9.09,29.51-91.67,2.79-8.67.95-2.94.14-.44s15.35,4.28,37.6,10.85c50.22,14.8,135.62,41.2,158.99,56.08,8.58,5.46,17.48,47.09,26.43,102.08,17.72,108.89,35.58,270.14,51.33,306.49,3.9,8.99.87,18.67-5.9,24.21Z"/>
  <path class="cls-13" d="m2517.65,1753.04l-3.07,82.79h-344.97l-1.53-95.06,69.54-20.35c32.99,65.14,167.45,65.97,203.03,2.49l77,30.13Z"/>
  <path class="cls-12" d="m2216.52,2055.35c-.85-1.96-20.88-48.75-33.46-110.05-7.42-36.2-10.65-69.9-9.59-100.16,1.35-38.47,9.68-71.58,24.75-98.39,25.59-45.52,70.27-73.04,132.8-81.79l1.19-.17,1.2.11c1.01.09,25.04,2.42,55.41,12.47,40.64,13.44,73.31,34.51,94.49,60.93,25.14,31.36,34.96,70.26,29.2,115.61l-20.52-2.61c5.02-39.54-3.31-73.19-24.76-99.99-42.54-53.15-124.04-64.44-134.62-65.69-55.12,8-94.26,31.96-116.36,71.23-30.68,54.55-24.02,130.11-13.03,183.89,12.12,59.3,32.07,105.94,32.27,106.41l-18.99,8.19Z"/>
  <polygon class="cls-8" points="2423.62 1472.98 2423.62 1716.25 2337.1 1764.43 2251.9 1727.97 2251.9 1472.98 2423.62 1472.98"/>
  <path class="cls-1" d="m2439.75,1725.79l-1.7,9.18-18.71,100.87-71.73,386.78h-18.72l-67.23-386.78-3.18-18.29-15.3-88.01h0s-.06-.38-.06-.38c13.78,12.99,27.31,23.11,40.69,30.46,0,0,0,0,0,0,34.54,18.97,68.07,19.49,102.47,3.4,0,0,0,0,.02,0,16.89-7.9,33.99-19.81,51.51-35.49.64-.58,1.28-1.16,1.93-1.74Z"/>
  <path class="cls-5" d="m2118.11,2222.61h-44.87c3.01-51.16,17.43-284.15,29.84-284.15,11.5,0,14.37,210.53,15.03,284.15Z"/>
  <path class="cls-5" d="m2589.13,2222.61h-44.87c.44-49.79,1.9-162.21,6.36-229.77,0,0,0-.02,0-.02,1.99-30.24,4.59-51.47,7.96-54.08.23-.19.47-.28.71-.28.33,0,.68.17,1.02.51.02.02.04.04.05.06,12.15,12.66,25.84,233.9,28.77,283.58Z"/>
  <path class="cls-7" d="m2423.62,1472.98v166.23c-22.7,19.57-50.59,27.56-80.75,27.56-34.85,0-66.69-33.14-90.97-58.56v-135.23h171.72Z"/>
  <path class="cls-8" d="m2479.33,1459.7c1,8,1.52,16.19,1.52,24.53,0,90.88-61.78,164.56-137.99,164.56-18.54,0-36.23-4.36-52.38-12.27-50.23-24.6-85.61-83.52-85.61-152.29,0-8.34.52-16.53,1.52-24.53-1-8-1.52-16.2-1.52-24.53,0-75.99,43.19-139.96,101.9-158.88,11.5-3.71,23.6-5.68,36.09-5.68,76.21,0,137.99,73.68,137.99,164.56,0,8.34-.52,16.53-1.52,24.53Z"/>
  <path class="cls-7" d="m2393.02,1549.42c2.34,28.87-19.16,54.17-48.03,56.51s-54.17-19.16-56.51-48.03l104.54-8.48Z"/>
  <path class="cls-9" d="m2290.49,1636.52c-50.23-24.6-85.61-83.52-85.61-152.29,0-8.34.52-16.53,1.52-24.53-1-8-1.52-16.2-1.52-24.53,0-75.99,43.19-139.96,101.9-158.88-27.1,37.93-63,104.62-55.33,196.66,1.37,2.73-4.8,62.86,39.04,163.57Z"/>
  <path class="cls-2" d="m2393.1,1549.34c1.45,17.82-18.18,26.86-43.82,28.94-25.65,2.08-47.61-3.59-49.06-21.41l92.88-7.53Z"/>
  <path class="cls-9" d="m2374.18,1511.8c-.08-14.91-12.23-26.93-27.14-26.85-14.91.08-26.93,12.23-26.85,27.14l54-.29Z"/>
  <path d="m2236.13,1427.03l74.11-9.18-4.22-20.28c-34.11,1.51-59.52,3.84-69.89,29.46Z"/>
  <path d="m2447.78,1428.71l-73.58-12.73,5.53-20.05c34,3.14,58.93,6.69,68.05,32.78Z"/>
  <path class="cls-10" d="m2506.41,1402.88c0-6.59-4.3-12.16-10.24-14.1,2.38-2.63,3.82-6.11,3.82-9.94,0-.09,0-.18,0-.27,2.73-2.68,4.42-6.41,4.42-10.55,0-6.1-3.69-11.34-8.96-13.61.36-1.27.55-2.62.55-4.01,0-2.44-.6-4.75-1.65-6.79,3.44-2.71,5.65-6.91,5.65-11.64,0-6.25-3.86-11.59-9.34-13.77,2.79-2.7,4.53-6.48,4.53-10.67,0-3.92-1.52-7.48-4-10.12.09-.65.14-1.31.14-1.99,0-8.19-6.64-14.82-14.83-14.82-.23,0-.44,0-.67.02.09-.63.13-1.27.13-1.93,0-7.74-5.93-14.09-13.5-14.76.18-.93.28-1.89.28-2.87,0-8.19-6.64-14.82-14.83-14.82-.82,0-1.62.07-2.4.19-1.27-5.4-5.5-9.66-10.88-10.99,1.06-2.04,1.67-4.37,1.67-6.83,0-8.19-6.64-14.83-14.83-14.83-3.2,0-6.17,1.02-8.59,2.75-1.88-6.02-7.5-10.39-14.14-10.39-2.36,0-4.59.55-6.57,1.53-1.65-6.39-7.45-11.12-14.36-11.12-6.4,0-11.86,4.06-13.92,9.74-2.71-3.49-6.95-5.74-11.71-5.74-4.14,0-7.89,1.7-10.58,4.44-2.71-3.26-6.81-5.33-11.38-5.33-6.17,0-11.44,3.76-13.68,9.1-2.56-4.43-7.35-7.41-12.83-7.41-6.09,0-11.31,3.67-13.6,8.92-2.22-1.33-4.81-2.09-7.59-2.09-5.19,0-9.74,2.66-12.39,6.69-1.41-.45-2.92-.69-4.48-.69-8.19,0-14.82,6.63-14.82,14.82,0,2.12.44,4.14,1.24,5.96-1.28-.36-2.62-.55-4.01-.55-8.18,0-14.82,6.64-14.82,14.82,0,2.43.59,4.72,1.62,6.74-.51-.05-1.03-.08-1.55-.08-8.19,0-14.83,6.63-14.83,14.82,0,1.28.16,2.53.47,3.71-.79-.12-1.6-.2-2.43-.2-8.19,0-14.82,6.64-14.82,14.83,0,.55.03,1.1.09,1.64-6.57,1.52-11.46,7.41-11.46,14.44,0,5.13,2.6,9.66,6.58,12.31-5.52,2.16-9.43,7.53-9.43,13.81,0,1.9.37,3.71,1.02,5.38l1.51,6.51c-5.78,2.02-9.94,7.53-9.94,13.99s4.28,12.14,10.2,14.09c-4.87,2.43-8.23,7.46-8.23,13.26,0,6.37,4.01,11.79,9.65,13.89-1.37,2.25-2.16,4.88-2.16,7.7,0,3.05.93,5.88,2.5,8.23-5.02,2.37-8.5,7.49-8.5,13.41,0,4.05,1.62,7.71,4.24,10.39,2.69,2.74,6.44,4.43,10.57,4.43.29,0,.57,0,.85-.02,2.06-.12,4-.65,5.75-1.53.19-.09.38-.19.57-.3.89.61,1.84,1.14,2.85,1.55,1.1.46,2.28.78,3.51.96l5.26,38.48,13.27-39.81,29.66-88.98h170.18l23.02,86.32,12.31,46.15,1.47,5.52,1.37-5.52,12.43-50.19.05-2.02c.19-.26.39-.52.57-.79,1.65.63,3.44.98,5.3.98.61,0,1.2-.04,1.8-.12h0c7.34-.89,13.01-7.13,13.01-14.7,0-1.45-.21-2.85-.6-4.17,3.3-2.72,5.41-6.84,5.41-11.45Zm-244.75-159.58c.08.02.16.05.23.06l-.14.18c-.02-.07-.05-.13-.09-.2,0-.02-.02-.03-.02-.05t.02,0Zm104.24-22.27c.07-.18.15-.36.21-.54.15.19.29.37.44.54h-.65Z"/>
  <path class="cls-11" d="m2283.91,1262.16c.03.08.07.16.1.23l.13-.16c-.08-.02-.16-.05-.23-.07Zm28.84-47.25c-5.89,0-10.95,3.55-13.15,8.63-2.15-1.28-4.66-2.03-7.35-2.03-5.01,0-9.42,2.58-11.99,6.48-1.37-.44-2.83-.67-4.34-.67-7.92,0-14.35,6.42-14.35,14.35,0,.55.03,1.09.09,1.62,0,.02,0,.02,0,.04.16,1.44.55,2.81,1.11,4.1-1.24-.35-2.53-.54-3.89-.54-7.92,0-14.34,6.42-14.34,14.35,0,2.35.57,4.56,1.57,6.52-.5-.05-.99-.08-1.51-.08-7.92,0-14.34,6.42-14.34,14.34,0,1.24.16,2.45.45,3.59-.76-.12-1.55-.19-2.35-.19-7.93,0-14.35,6.42-14.35,14.35,0,.54.03,1.07.09,1.59-6.36,1.48-11.09,7.17-11.09,13.98,0,4.97,2.53,9.34,6.37,11.92-5.34,2.09-9.13,7.28-9.13,13.36,0,1.83.35,3.59.98,5.21l1.46,6.31c-5.6,1.95-9.62,7.28-9.62,13.54s4.14,11.76,9.87,13.64c-4.72,2.35-7.95,7.21-7.95,12.84,0,6.16,3.88,11.41,9.33,13.44-1.32,2.18-2.08,4.73-2.08,7.46,0,2.95.89,5.68,2.41,7.96-4.11,1.95-7.16,5.79-7.99,10.4-.16.84-.23,1.7-.23,2.58,0,3.18,1.03,6.12,2.78,8.5,1.54,2.08,3.62,3.74,6.04,4.74,1.63.68,3.4,1.07,5.26,1.1-1.14-1.8-1.9-3.9-2.13-6.13-.05-.51-.09-1.02-.09-1.54,0-4.57,2.14-8.64,5.47-11.26.85-.68,1.77-1.26,2.76-1.73-1.52-2.28-2.41-5.01-2.41-7.96,0-2.73.76-5.28,2.09-7.46-4.16-1.55-7.39-4.96-8.7-9.22-.42-1.34-.64-2.75-.64-4.22,0-3.51,1.27-6.73,3.36-9.22,0,0,0,0,0,0,1.26-1.5,2.82-2.74,4.59-3.62-1.17-.38-2.26-.91-3.27-1.55-3.97-2.55-6.6-7.01-6.6-12.08,0-6.27,4.02-11.59,9.62-13.54l-1.47-6.31c-.63-1.62-.97-3.37-.97-5.21,0-6.08,3.78-11.27,9.12-13.36-3.84-2.57-6.37-6.95-6.37-11.92,0-6.81,4.73-12.5,11.09-13.98-.06-.52-.09-1.05-.09-1.59,0-7.93,6.43-14.35,14.35-14.35.8,0,1.59.07,2.36.19-.3-1.14-.46-2.35-.46-3.59,0-7.92,6.43-14.34,14.35-14.34.51,0,1.01.02,1.5.08-1-1.96-1.57-4.17-1.57-6.52,0-7.93,6.43-14.35,14.35-14.35,1.35,0,2.64.19,3.88.54-.78-1.76-1.2-3.72-1.2-5.77,0-7.92,6.42-14.34,14.34-14.34,1.52,0,2.97.23,4.34.67,2.57-3.9,6.97-6.47,11.99-6.47,2.69,0,5.2.74,7.36,2.02,2.21-5.08,7.27-8.63,13.16-8.63.08,0,.16,0,.25,0-2.54-4.02-7.02-6.69-12.13-6.69Zm71.74-4.66c-6.2,0-11.48,3.93-13.48,9.44-2.63-3.38-6.73-5.56-11.34-5.56-4.01,0-7.63,1.65-10.24,4.3-2.63-3.16-6.59-5.17-11.02-5.17-5.78,0-10.77,3.42-13.03,8.35,4.99.26,9.3,3.06,11.66,7.14,2.17-5.18,7.28-8.81,13.24-8.81,4.43,0,8.4,2.01,11.02,5.16,2.6-2.65,6.23-4.3,10.24-4.3,4.61,0,8.71,2.18,11.34,5.56,2.01-5.5,7.28-9.44,13.49-9.44.08,0,.16,0,.25,0-2.54-4.02-7.02-6.69-12.13-6.69Z"/>
  <circle cx="2281.16" cy="1451.01" r="15.33" transform="translate(-357.88 2038.01) rotate(-45)"/>
  <circle cx="2398.45" cy="1451.01" r="15.33" transform="translate(-323.53 2120.95) rotate(-45)"/>
  <path class="cls-8" d="m2499.83,1458.67c0-22.23-12.53-29.61-27.98-29.61s-27.98,18.02-27.98,40.25,12.53,40.25,27.98,40.25,27.98-28.66,27.98-50.89Z"/>
  <path class="cls-9" d="m2181.98,1458.67c0-22.23,12.53-29.61,27.98-29.61s27.98,18.02,27.98,40.25-12.53,40.25-27.98,40.25-27.98-28.66-27.98-50.89Z"/>
  <path class="cls-12" d="m2560.53,1939.05l-15.96-2.56c7.25-45.11-21.51-70.81-51.31-75.6-29.79-4.79-65.17,10.6-72.42,55.72l-15.96-2.56c4.02-25.01,15.83-44.77,34.16-57.14,16.28-10.99,36.45-15.24,56.78-11.97,20.33,3.27,38.15,13.62,50.17,29.16,13.53,17.49,18.56,39.95,14.54,64.96Z"/>
  <path class="cls-17" d="m2405.02,2055.06c-15.27-30.76-1.67-129.84-.07-141.04l15.56,2.22c-4.16,29.09-12.51,109.47-1.41,131.83l-14.08,6.99Z"/>
  <path class="cls-17" d="m2521.88,2071.34l-11.61-10.59c16.82-18.44,30.91-98.02,34.92-127.13l15.57,2.14c-1.54,11.2-15.74,110.2-38.88,135.58Z"/>
  <circle class="cls-17" cx="2228.54" cy="2062.02" r="39.92"/>
  <circle class="cls-12" cx="2228.54" cy="2062.02" r="19.01"/>
  <circle class="cls-12" cx="2415.99" cy="2046.78" r="13.62"/>
  <circle class="cls-12" cx="2513.42" cy="2060.44" r="13.62"/>
  <circle class="cls-1" cx="2329.04" cy="1110.83" r="31.76"/>
  <path class="cls-4" d="m3641.77,2460.61c-8.82,16.76-20.16,32.61-33.8,47.64H1050.36c-16.69-14.48-29.96-30.29-39.31-47.64h2630.72Z"/>
  <polygon class="cls-6" points="2604.45 2425.68 2051.45 2425.68 2029.41 2385.98 2626.49 2385.98 2604.45 2425.68"/>
</svg>